<svg width="1280" height="640" viewBox="0 0 1280 640" fill="none" xmlns="http://www.w3.org/2000/svg">
<g clip-path="url(#clip0_6_30)">
<rect width="1280" height="640" fill="#1F1F1F"/>
<path d="M674.312 44H645.25V-2.65625H674.312V5.46875H654.469V15.5312H672.438V23.6562H654.469V35.875H674.312V44Z" fill="#5DC6AE"/>
<path d="M714.594 9L703.469 44H692.188L681.062 9H690.344L697.812 36.3125L705.312 9H714.594Z" fill="#5DC6AE"/>
<path d="M739 27.5625C735.583 27.5625 733.198 28 731.844 28.875C730.49 29.75 729.812 31.25 729.812 33.375C729.812 34.9583 730.281 36.2188 731.219 37.1562C732.156 38.0938 733.427 38.5625 735.031 38.5625C737.448 38.5625 739.323 37.6562 740.656 35.8438C741.99 34.0104 742.656 31.4583 742.656 28.1875V27.5625H739ZM751.75 24.0312V44H742.656V40.0938C741.552 41.6354 740.135 42.8229 738.406 43.6562C736.677 44.4896 734.771 44.9062 732.688 44.9062C728.708 44.9062 725.604 43.8542 723.375 41.75C721.167 39.6458 720.062 36.7083 720.062 32.9375C720.062 28.8542 721.385 25.8438 724.031 23.9062C726.677 21.9479 730.771 20.9688 736.312 20.9688H742.656V19.4375C742.656 17.9583 742.115 16.8438 741.031 16.0938C739.969 15.3229 738.396 14.9375 736.312 14.9375C734.125 14.9375 732 15.2188 729.938 15.7812C727.896 16.3229 725.76 17.1979 723.531 18.4062V10.5938C725.552 9.76042 727.604 9.14583 729.688 8.75C731.771 8.35417 733.979 8.15625 736.312 8.15625C742 8.15625 745.99 9.3125 748.281 11.625C750.594 13.9375 751.75 18.0729 751.75 24.0312Z" fill="#5DC6AE"/>
<path d="M767.781 29.4062V2.40625H758.5V-4.625H776.938V29.4062C776.938 32.1562 777.365 34.1042 778.219 35.25C779.073 36.3958 780.521 36.9688 782.562 36.9688H789.875V44H780C775.646 44 772.521 42.875 770.625 40.625C768.729 38.375 767.781 34.6354 767.781 29.4062Z" fill="#5DC6AE"/>
<path d="M799.25 31.7812V9H808.406V30.375C808.406 32.8958 808.76 34.6979 809.469 35.7812C810.177 36.8646 811.354 37.4062 813 37.4062C814.646 37.4062 815.927 36.6771 816.844 35.2188C817.781 33.7604 818.25 31.7188 818.25 29.0938V9H827.406V44H818.25V38.8125C817.604 40.75 816.5 42.25 814.938 43.3125C813.396 44.375 811.531 44.9062 809.344 44.9062C806.01 44.9062 803.49 43.8021 801.781 41.5938C800.094 39.3854 799.25 36.1146 799.25 31.7812Z" fill="#5DC6AE"/>
<path d="M854.688 27.5625C851.271 27.5625 848.885 28 847.531 28.875C846.177 29.75 845.5 31.25 845.5 33.375C845.5 34.9583 845.969 36.2188 846.906 37.1562C847.844 38.0938 849.115 38.5625 850.719 38.5625C853.135 38.5625 855.01 37.6562 856.344 35.8438C857.677 34.0104 858.344 31.4583 858.344 28.1875V27.5625H854.688ZM867.438 24.0312V44H858.344V40.0938C857.24 41.6354 855.823 42.8229 854.094 43.6562C852.365 44.4896 850.458 44.9062 848.375 44.9062C844.396 44.9062 841.292 43.8542 839.062 41.75C836.854 39.6458 835.75 36.7083 835.75 32.9375C835.75 28.8542 837.073 25.8438 839.719 23.9062C842.365 21.9479 846.458 20.9688 852 20.9688H858.344V19.4375C858.344 17.9583 857.802 16.8438 856.719 16.0938C855.656 15.3229 854.083 14.9375 852 14.9375C849.812 14.9375 847.688 15.2188 845.625 15.7812C843.583 16.3229 841.448 17.1979 839.219 18.4062V10.5938C841.24 9.76042 843.292 9.14583 845.375 8.75C847.458 8.35417 849.667 8.15625 852 8.15625C857.688 8.15625 861.677 9.3125 863.969 11.625C866.281 13.9375 867.438 18.0729 867.438 24.0312Z" fill="#5DC6AE"/>
<path d="M892.938 -0.9375V9H904.906V16.0312H892.938V32.5938C892.938 34.1562 893.312 35.2812 894.062 35.9688C894.833 36.6354 896.104 36.9688 897.875 36.9688H904.906V44H897.219C891.969 44 888.417 43.1667 886.562 41.5C884.708 39.8125 883.781 36.6979 883.781 32.1562V16.0312H874.844V9H883.781V-0.9375H892.938Z" fill="#5DC6AE"/>
<path d="M944.375 42.2812C942.25 43.1562 940.083 43.8125 937.875 44.25C935.667 44.6875 933.333 44.9062 930.875 44.9062C925.021 44.9062 920.542 43.3438 917.438 40.2188C914.354 37.0729 912.812 32.5521 912.812 26.6562C912.812 20.9479 914.302 16.4375 917.281 13.125C920.26 9.8125 924.323 8.15625 929.469 8.15625C934.656 8.15625 938.677 9.69792 941.531 12.7812C944.406 15.8438 945.844 20.1667 945.844 25.75V29.4688H922.125C922.146 32.2188 922.958 34.2708 924.562 35.625C926.167 36.9792 928.562 37.6562 931.75 37.6562C933.854 37.6562 935.927 37.3542 937.969 36.75C940.01 36.1458 942.146 35.1875 944.375 33.875V42.2812ZM936.625 22.5938C936.583 20.1771 935.958 18.3542 934.75 17.125C933.562 15.875 931.802 15.25 929.469 15.25C927.365 15.25 925.688 15.8958 924.438 17.1875C923.188 18.4583 922.448 20.2708 922.219 22.625L936.625 22.5938Z" fill="#5DC6AE"/>
<path d="M984.281 15.0625L959.438 23.9688L984.281 32.8125V40.5938L951.25 27.625V20.25L984.281 7.25V15.0625Z" fill="#FED534"/>
<path d="M1018.28 -2.65625V14.6875H1010.28V-2.65625H1018.28ZM1002.28 -2.65625V14.6875H994.281V-2.65625H1002.28Z" fill="#CB917A"/>
<path d="M1031.5 35.875H1041.81V5.59375L1032.22 7.96875V-0.34375L1041.88 -2.65625H1050.78V35.875H1061.09V44H1031.5V35.875Z" fill="#CB917A"/>
<path d="M1078.22 32.5312H1088.62V44H1078.22V32.5312Z" fill="#CB917A"/>
<path d="M1108.78 -2.65625H1134.12V5.46875H1116.25V14.125C1117 13.8333 1117.8 13.625 1118.66 13.5C1119.51 13.3542 1120.42 13.2812 1121.38 13.2812C1126 13.2812 1129.75 14.7396 1132.62 17.6562C1135.5 20.5729 1136.94 24.3646 1136.94 29.0312C1136.94 33.9271 1135.38 37.8021 1132.25 40.6562C1129.15 43.4896 1124.91 44.9062 1119.53 44.9062C1117.53 44.9062 1115.51 44.7396 1113.47 44.4062C1111.43 44.0729 1109.34 43.5729 1107.22 42.9062V34.5938C1108.95 35.4479 1110.72 36.0938 1112.53 36.5312C1114.36 36.9479 1116.2 37.1562 1118.03 37.1562C1121.28 37.1562 1123.75 36.4688 1125.44 35.0938C1127.12 33.6979 1127.97 31.6771 1127.97 29.0312C1127.97 26.5938 1127.12 24.6458 1125.44 23.1875C1123.77 21.7083 1121.54 20.9688 1118.75 20.9688C1117.1 20.9688 1115.45 21.1771 1113.78 21.5938C1112.14 21.9896 1110.47 22.5938 1108.78 23.4062V-2.65625Z" fill="#CB917A"/>
<path d="M1216.59 17.375L1203.69 24.3438L1216.62 31.375L1213.88 36.125L1201.66 28.75V42.4062H1196.12V28.7812C1194.15 29.9688 1192.1 31.1979 1190 32.4688C1187.9 33.7396 1185.86 34.9583 1183.91 36.125L1181.19 31.375L1194.16 24.3438L1181.22 17.375L1183.91 12.5938L1196.12 19.9375V6.3125H1201.66V19.9375C1203.66 18.75 1205.7 17.5208 1207.78 16.25C1209.89 14.9792 1211.92 13.7604 1213.88 12.5938L1216.59 17.375Z" fill="#CB917A"/>
<path d="M1277.09 20.625C1275.09 20.625 1273.56 21.3542 1272.5 22.8125C1271.46 24.25 1270.94 26.3438 1270.94 29.0938C1270.94 31.8229 1271.46 33.9167 1272.5 35.375C1273.56 36.8125 1275.09 37.5312 1277.09 37.5312C1279.09 37.5312 1280.62 36.8125 1281.69 35.375C1282.77 33.9167 1283.31 31.8229 1283.31 29.0938C1283.31 26.3646 1282.77 24.2708 1281.69 22.8125C1280.62 21.3542 1279.09 20.625 1277.09 20.625ZM1289.19 -1.5625V6.8125C1287.54 5.875 1285.96 5.17708 1284.44 4.71875C1282.94 4.23958 1281.49 4 1280.09 4C1276.76 4 1274.22 5.125 1272.47 7.375C1270.74 9.60417 1269.83 12.9062 1269.75 17.2812C1270.73 15.9271 1271.98 14.9167 1273.5 14.25C1275.02 13.5625 1276.81 13.2188 1278.88 13.2188C1283.08 13.2188 1286.33 14.5521 1288.62 17.2188C1290.92 19.8646 1292.06 23.625 1292.06 28.5C1292.06 33.7292 1290.77 37.7812 1288.19 40.6562C1285.62 43.5312 1282.01 44.9688 1277.34 44.9688C1271.66 44.9688 1267.52 43.0625 1264.94 39.25C1262.38 35.4375 1261.09 29.2812 1261.09 20.7812C1261.09 12.6979 1262.67 6.64583 1265.81 2.625C1268.96 -1.41667 1273.68 -3.4375 1279.97 -3.4375C1281.43 -3.4375 1282.93 -3.28125 1284.47 -2.96875C1286.03 -2.65625 1287.6 -2.1875 1289.19 -1.5625Z" fill="#CB917A"/>
<path d="M674.312 119H645.25V72.3438H674.312V80.4688H654.469V90.5312H672.438V98.6562H654.469V110.875H674.312V119Z" fill="#5DC6AE"/>
<path d="M714.594 84L703.469 119H692.188L681.062 84H690.344L697.812 111.312L705.312 84H714.594Z" fill="#5DC6AE"/>
<path d="M739 102.562C735.583 102.562 733.198 103 731.844 103.875C730.49 104.75 729.812 106.25 729.812 108.375C729.812 109.958 730.281 111.219 731.219 112.156C732.156 113.094 733.427 113.562 735.031 113.562C737.448 113.562 739.323 112.656 740.656 110.844C741.99 109.01 742.656 106.458 742.656 103.188V102.562H739ZM751.75 99.0312V119H742.656V115.094C741.552 116.635 740.135 117.823 738.406 118.656C736.677 119.49 734.771 119.906 732.688 119.906C728.708 119.906 725.604 118.854 723.375 116.75C721.167 114.646 720.062 111.708 720.062 107.938C720.062 103.854 721.385 100.844 724.031 98.9062C726.677 96.9479 730.771 95.9688 736.312 95.9688H742.656V94.4375C742.656 92.9583 742.115 91.8438 741.031 91.0938C739.969 90.3229 738.396 89.9375 736.312 89.9375C734.125 89.9375 732 90.2188 729.938 90.7812C727.896 91.3229 725.76 92.1979 723.531 93.4062V85.5938C725.552 84.7604 727.604 84.1458 729.688 83.75C731.771 83.3542 733.979 83.1562 736.312 83.1562C742 83.1562 745.99 84.3125 748.281 86.625C750.594 88.9375 751.75 93.0729 751.75 99.0312Z" fill="#5DC6AE"/>
<path d="M767.781 104.406V77.4062H758.5V70.375H776.938V104.406C776.938 107.156 777.365 109.104 778.219 110.25C779.073 111.396 780.521 111.969 782.562 111.969H789.875V119H780C775.646 119 772.521 117.875 770.625 115.625C768.729 113.375 767.781 109.635 767.781 104.406Z" fill="#5DC6AE"/>
<path d="M799.25 106.781V84H808.406V105.375C808.406 107.896 808.76 109.698 809.469 110.781C810.177 111.865 811.354 112.406 813 112.406C814.646 112.406 815.927 111.677 816.844 110.219C817.781 108.76 818.25 106.719 818.25 104.094V84H827.406V119H818.25V113.812C817.604 115.75 816.5 117.25 814.938 118.312C813.396 119.375 811.531 119.906 809.344 119.906C806.01 119.906 803.49 118.802 801.781 116.594C800.094 114.385 799.25 111.115 799.25 106.781Z" fill="#5DC6AE"/>
<path d="M854.688 102.562C851.271 102.562 848.885 103 847.531 103.875C846.177 104.75 845.5 106.25 845.5 108.375C845.5 109.958 845.969 111.219 846.906 112.156C847.844 113.094 849.115 113.562 850.719 113.562C853.135 113.562 855.01 112.656 856.344 110.844C857.677 109.01 858.344 106.458 858.344 103.188V102.562H854.688ZM867.438 99.0312V119H858.344V115.094C857.24 116.635 855.823 117.823 854.094 118.656C852.365 119.49 850.458 119.906 848.375 119.906C844.396 119.906 841.292 118.854 839.062 116.75C836.854 114.646 835.75 111.708 835.75 107.938C835.75 103.854 837.073 100.844 839.719 98.9062C842.365 96.9479 846.458 95.9688 852 95.9688H858.344V94.4375C858.344 92.9583 857.802 91.8438 856.719 91.0938C855.656 90.3229 854.083 89.9375 852 89.9375C849.812 89.9375 847.688 90.2188 845.625 90.7812C843.583 91.3229 841.448 92.1979 839.219 93.4062V85.5938C841.24 84.7604 843.292 84.1458 845.375 83.75C847.458 83.3542 849.667 83.1562 852 83.1562C857.688 83.1562 861.677 84.3125 863.969 86.625C866.281 88.9375 867.438 93.0729 867.438 99.0312Z" fill="#5DC6AE"/>
<path d="M892.938 74.0625V84H904.906V91.0312H892.938V107.594C892.938 109.156 893.312 110.281 894.062 110.969C894.833 111.635 896.104 111.969 897.875 111.969H904.906V119H897.219C891.969 119 888.417 118.167 886.562 116.5C884.708 114.812 883.781 111.698 883.781 107.156V91.0312H874.844V84H883.781V74.0625H892.938Z" fill="#5DC6AE"/>
<path d="M944.375 117.281C942.25 118.156 940.083 118.812 937.875 119.25C935.667 119.688 933.333 119.906 930.875 119.906C925.021 119.906 920.542 118.344 917.438 115.219C914.354 112.073 912.812 107.552 912.812 101.656C912.812 95.9479 914.302 91.4375 917.281 88.125C920.26 84.8125 924.323 83.1562 929.469 83.1562C934.656 83.1562 938.677 84.6979 941.531 87.7812C944.406 90.8438 945.844 95.1667 945.844 100.75V104.469H922.125C922.146 107.219 922.958 109.271 924.562 110.625C926.167 111.979 928.562 112.656 931.75 112.656C933.854 112.656 935.927 112.354 937.969 111.75C940.01 111.146 942.146 110.188 944.375 108.875V117.281ZM936.625 97.5938C936.583 95.1771 935.958 93.3542 934.75 92.125C933.562 90.875 931.802 90.25 929.469 90.25C927.365 90.25 925.688 90.8958 924.438 92.1875C923.188 93.4583 922.448 95.2708 922.219 97.625L936.625 97.5938Z" fill="#5DC6AE"/>
<path d="M984.281 90.0625L959.438 98.9688L984.281 107.812V115.594L951.25 102.625V95.25L984.281 82.25V90.0625Z" fill="#FED534"/>
<path d="M1018.28 72.3438V89.6875H1010.28V72.3438H1018.28ZM1002.28 72.3438V89.6875H994.281V72.3438H1002.28Z" fill="#CB917A"/>
<path d="M1047.5 102.562C1044.08 102.562 1041.7 103 1040.34 103.875C1038.99 104.75 1038.31 106.25 1038.31 108.375C1038.31 109.958 1038.78 111.219 1039.72 112.156C1040.66 113.094 1041.93 113.562 1043.53 113.562C1045.95 113.562 1047.82 112.656 1049.16 110.844C1050.49 109.01 1051.16 106.458 1051.16 103.188V102.562H1047.5ZM1060.25 99.0312V119H1051.16V115.094C1050.05 116.635 1048.64 117.823 1046.91 118.656C1045.18 119.49 1043.27 119.906 1041.19 119.906C1037.21 119.906 1034.1 118.854 1031.88 116.75C1029.67 114.646 1028.56 111.708 1028.56 107.938C1028.56 103.854 1029.89 100.844 1032.53 98.9062C1035.18 96.9479 1039.27 95.9688 1044.81 95.9688H1051.16V94.4375C1051.16 92.9583 1050.61 91.8438 1049.53 91.0938C1048.47 90.3229 1046.9 89.9375 1044.81 89.9375C1042.62 89.9375 1040.5 90.2188 1038.44 90.7812C1036.4 91.3229 1034.26 92.1979 1032.03 93.4062V85.5938C1034.05 84.7604 1036.1 84.1458 1038.19 83.75C1040.27 83.3542 1042.48 83.1562 1044.81 83.1562C1050.5 83.1562 1054.49 84.3125 1056.78 86.625C1059.09 88.9375 1060.25 93.0729 1060.25 99.0312Z" fill="#CB917A"/>
<path d="M1090.75 101.594C1090.75 98.2188 1090.19 95.5729 1089.06 93.6562C1087.94 91.7396 1086.39 90.7812 1084.41 90.7812C1082.43 90.7812 1080.86 91.7396 1079.72 93.6562C1078.57 95.5729 1078 98.2188 1078 101.594C1078 104.969 1078.57 107.615 1079.72 109.531C1080.86 111.448 1082.43 112.406 1084.41 112.406C1086.39 112.406 1087.94 111.448 1089.06 109.531C1090.19 107.615 1090.75 104.969 1090.75 101.594ZM1078 88.9688C1079.12 87.0312 1080.43 85.5833 1081.91 84.625C1083.41 83.6458 1085.09 83.1562 1086.97 83.1562C1091.11 83.1562 1094.3 84.7396 1096.53 87.9062C1098.78 91.0729 1099.91 95.6146 1099.91 101.531C1099.91 107.365 1098.8 111.885 1096.59 115.094C1094.39 118.302 1091.28 119.906 1087.28 119.906C1085.18 119.906 1083.34 119.396 1081.78 118.375C1080.22 117.354 1078.96 115.833 1078 113.812V119H1068.88V70.375H1078V88.9688Z" fill="#CB917A"/>
<path d="M1133.72 85.0938V93.0938C1132.03 92.0104 1130.27 91.1979 1128.44 90.6562C1126.62 90.0938 1124.8 89.8125 1122.97 89.8125C1120.93 89.8125 1119.39 90.1146 1118.34 90.7188C1117.3 91.3021 1116.78 92.1771 1116.78 93.3438C1116.78 95.0104 1119.01 96.3646 1123.47 97.4062L1123.81 97.5L1126.44 98.125C1129.77 98.9167 1132.21 100.198 1133.75 101.969C1135.31 103.719 1136.09 106.094 1136.09 109.094C1136.09 112.698 1134.91 115.406 1132.53 117.219C1130.18 119.01 1126.62 119.906 1121.88 119.906C1119.77 119.906 1117.61 119.719 1115.41 119.344C1113.2 118.99 1110.96 118.448 1108.69 117.719V109.719C1110.71 110.865 1112.76 111.74 1114.84 112.344C1116.95 112.948 1118.98 113.25 1120.94 113.25C1123.08 113.25 1124.71 112.938 1125.81 112.312C1126.92 111.688 1127.47 110.781 1127.47 109.594C1127.47 108.427 1127.07 107.531 1126.28 106.906C1125.51 106.281 1123.66 105.615 1120.72 104.906L1118.19 104.344C1114.69 103.552 1112.14 102.312 1110.53 100.625C1108.93 98.9375 1108.12 96.6771 1108.12 93.8438C1108.12 90.4688 1109.34 87.8438 1111.78 85.9688C1114.22 84.0938 1117.65 83.1562 1122.06 83.1562C1124.04 83.1562 1126.01 83.3229 1127.97 83.6562C1129.95 83.9688 1131.86 84.4479 1133.72 85.0938Z" fill="#CB917A"/>
<path d="M1170.19 70.4375C1167.44 75.4167 1165.4 80.2396 1164.06 84.9062C1162.73 89.5729 1162.06 94.2396 1162.06 98.9062C1162.06 103.531 1162.73 108.198 1164.06 112.906C1165.4 117.594 1167.44 122.438 1170.19 127.438H1163.06C1159.75 122.625 1157.29 117.885 1155.69 113.219C1154.08 108.531 1153.28 103.76 1153.28 98.9062C1153.28 94.0729 1154.08 89.3125 1155.69 84.625C1157.31 79.9167 1159.77 75.1875 1163.06 70.4375H1170.19Z" fill="#CB917A"/>
<path d="M1193.44 110.875H1213.09V119H1183.47V111.125L1188.47 105.812C1194.41 99.5 1198.01 95.6146 1199.28 94.1562C1200.84 92.3646 1201.97 90.7812 1202.66 89.4062C1203.34 88.0104 1203.69 86.6354 1203.69 85.2812C1203.69 83.1979 1203.05 81.5938 1201.78 80.4688C1200.53 79.3229 1198.75 78.75 1196.44 78.75C1194.79 78.75 1192.94 79.0833 1190.88 79.75C1188.83 80.3958 1186.7 81.3438 1184.47 82.5938V74C1186.7 73.1875 1188.88 72.5729 1191 72.1562C1193.15 71.7188 1195.2 71.5 1197.16 71.5C1202.09 71.5 1205.97 72.6562 1208.78 74.9688C1211.61 77.2604 1213.03 80.3958 1213.03 84.375C1213.03 86.2083 1212.72 87.9271 1212.09 89.5312C1211.49 91.1354 1210.44 92.9167 1208.94 94.875C1207.83 96.2917 1204.8 99.4792 1199.84 104.438C1197.16 107.125 1195.02 109.271 1193.44 110.875Z" fill="#CB917A"/>
<path d="M1232.47 107.531H1242.88V119H1232.47V107.531Z" fill="#CB917A"/>
<path d="M1274.16 98.125H1269.22V90H1274.16C1276.45 90 1278.22 89.5521 1279.47 88.6562C1280.74 87.7396 1281.38 86.4583 1281.38 84.8125C1281.38 83.0833 1280.74 81.7396 1279.47 80.7812C1278.22 79.8021 1276.45 79.3125 1274.16 79.3125C1272.41 79.3125 1270.53 79.5312 1268.53 79.9688C1266.53 80.4062 1264.46 81.0417 1262.31 81.875V73.5C1264.46 72.8542 1266.57 72.3646 1268.66 72.0312C1270.74 71.6771 1272.74 71.5 1274.66 71.5C1279.57 71.5 1283.41 72.5729 1286.16 74.7188C1288.91 76.8646 1290.28 79.8229 1290.28 83.5938C1290.28 86.3646 1289.49 88.6354 1287.91 90.4062C1286.32 92.1562 1284.06 93.3021 1281.12 93.8438C1284.46 94.4271 1287 95.7604 1288.75 97.8438C1290.5 99.9062 1291.38 102.625 1291.38 106C1291.38 110.521 1289.93 113.969 1287.03 116.344C1284.14 118.719 1279.93 119.906 1274.41 119.906C1272.05 119.906 1269.73 119.708 1267.44 119.312C1265.17 118.917 1262.99 118.344 1260.91 117.594V109.031C1262.86 110.01 1264.98 110.76 1267.25 111.281C1269.52 111.781 1271.91 112.031 1274.41 112.031C1276.91 112.031 1278.89 111.458 1280.34 110.312C1281.8 109.146 1282.53 107.583 1282.53 105.625C1282.53 103.229 1281.8 101.385 1280.34 100.094C1278.89 98.7812 1276.82 98.125 1274.16 98.125Z" fill="#CB917A"/>
<path d="M674.312 194H645.25V147.344H674.312V155.469H654.469V165.531H672.438V173.656H654.469V185.875H674.312V194Z" fill="#5DC6AE"/>
<path d="M714.594 159L703.469 194H692.188L681.062 159H690.344L697.812 186.312L705.312 159H714.594Z" fill="#5DC6AE"/>
<path d="M739 177.562C735.583 177.562 733.198 178 731.844 178.875C730.49 179.75 729.812 181.25 729.812 183.375C729.812 184.958 730.281 186.219 731.219 187.156C732.156 188.094 733.427 188.562 735.031 188.562C737.448 188.562 739.323 187.656 740.656 185.844C741.99 184.01 742.656 181.458 742.656 178.188V177.562H739ZM751.75 174.031V194H742.656V190.094C741.552 191.635 740.135 192.823 738.406 193.656C736.677 194.49 734.771 194.906 732.688 194.906C728.708 194.906 725.604 193.854 723.375 191.75C721.167 189.646 720.062 186.708 720.062 182.938C720.062 178.854 721.385 175.844 724.031 173.906C726.677 171.948 730.771 170.969 736.312 170.969H742.656V169.438C742.656 167.958 742.115 166.844 741.031 166.094C739.969 165.323 738.396 164.938 736.312 164.938C734.125 164.938 732 165.219 729.938 165.781C727.896 166.323 725.76 167.198 723.531 168.406V160.594C725.552 159.76 727.604 159.146 729.688 158.75C731.771 158.354 733.979 158.156 736.312 158.156C742 158.156 745.99 159.312 748.281 161.625C750.594 163.938 751.75 168.073 751.75 174.031Z" fill="#5DC6AE"/>
<path d="M767.781 179.406V152.406H758.5V145.375H776.938V179.406C776.938 182.156 777.365 184.104 778.219 185.25C779.073 186.396 780.521 186.969 782.562 186.969H789.875V194H780C775.646 194 772.521 192.875 770.625 190.625C768.729 188.375 767.781 184.635 767.781 179.406Z" fill="#5DC6AE"/>
<path d="M799.25 181.781V159H808.406V180.375C808.406 182.896 808.76 184.698 809.469 185.781C810.177 186.865 811.354 187.406 813 187.406C814.646 187.406 815.927 186.677 816.844 185.219C817.781 183.76 818.25 181.719 818.25 179.094V159H827.406V194H818.25V188.812C817.604 190.75 816.5 192.25 814.938 193.312C813.396 194.375 811.531 194.906 809.344 194.906C806.01 194.906 803.49 193.802 801.781 191.594C800.094 189.385 799.25 186.115 799.25 181.781Z" fill="#5DC6AE"/>
<path d="M854.688 177.562C851.271 177.562 848.885 178 847.531 178.875C846.177 179.75 845.5 181.25 845.5 183.375C845.5 184.958 845.969 186.219 846.906 187.156C847.844 188.094 849.115 188.562 850.719 188.562C853.135 188.562 855.01 187.656 856.344 185.844C857.677 184.01 858.344 181.458 858.344 178.188V177.562H854.688ZM867.438 174.031V194H858.344V190.094C857.24 191.635 855.823 192.823 854.094 193.656C852.365 194.49 850.458 194.906 848.375 194.906C844.396 194.906 841.292 193.854 839.062 191.75C836.854 189.646 835.75 186.708 835.75 182.938C835.75 178.854 837.073 175.844 839.719 173.906C842.365 171.948 846.458 170.969 852 170.969H858.344V169.438C858.344 167.958 857.802 166.844 856.719 166.094C855.656 165.323 854.083 164.938 852 164.938C849.812 164.938 847.688 165.219 845.625 165.781C843.583 166.323 841.448 167.198 839.219 168.406V160.594C841.24 159.76 843.292 159.146 845.375 158.75C847.458 158.354 849.667 158.156 852 158.156C857.688 158.156 861.677 159.312 863.969 161.625C866.281 163.938 867.438 168.073 867.438 174.031Z" fill="#5DC6AE"/>
<path d="M892.938 149.062V159H904.906V166.031H892.938V182.594C892.938 184.156 893.312 185.281 894.062 185.969C894.833 186.635 896.104 186.969 897.875 186.969H904.906V194H897.219C891.969 194 888.417 193.167 886.562 191.5C884.708 189.812 883.781 186.698 883.781 182.156V166.031H874.844V159H883.781V149.062H892.938Z" fill="#5DC6AE"/>
<path d="M944.375 192.281C942.25 193.156 940.083 193.812 937.875 194.25C935.667 194.688 933.333 194.906 930.875 194.906C925.021 194.906 920.542 193.344 917.438 190.219C914.354 187.073 912.812 182.552 912.812 176.656C912.812 170.948 914.302 166.438 917.281 163.125C920.26 159.812 924.323 158.156 929.469 158.156C934.656 158.156 938.677 159.698 941.531 162.781C944.406 165.844 945.844 170.167 945.844 175.75V179.469H922.125C922.146 182.219 922.958 184.271 924.562 185.625C926.167 186.979 928.562 187.656 931.75 187.656C933.854 187.656 935.927 187.354 937.969 186.75C940.01 186.146 942.146 185.188 944.375 183.875V192.281ZM936.625 172.594C936.583 170.177 935.958 168.354 934.75 167.125C933.562 165.875 931.802 165.25 929.469 165.25C927.365 165.25 925.688 165.896 924.438 167.188C923.188 168.458 922.448 170.271 922.219 172.625L936.625 172.594Z" fill="#5DC6AE"/>
<path d="M984.281 165.062L959.438 173.969L984.281 182.812V190.594L951.25 177.625V170.25L984.281 157.25V165.062Z" fill="#FED534"/>
<path d="M1018.28 147.344V164.688H1010.28V147.344H1018.28ZM1002.28 147.344V164.688H994.281V147.344H1002.28Z" fill="#CB917A"/>
<path d="M1031.66 147.344H1057V155.469H1039.12V164.125C1039.88 163.833 1040.68 163.625 1041.53 163.5C1042.39 163.354 1043.29 163.281 1044.25 163.281C1048.88 163.281 1052.62 164.74 1055.5 167.656C1058.38 170.573 1059.81 174.365 1059.81 179.031C1059.81 183.927 1058.25 187.802 1055.12 190.656C1052.02 193.49 1047.78 194.906 1042.41 194.906C1040.41 194.906 1038.39 194.74 1036.34 194.406C1034.3 194.073 1032.22 193.573 1030.09 192.906V184.594C1031.82 185.448 1033.59 186.094 1035.41 186.531C1037.24 186.948 1039.07 187.156 1040.91 187.156C1044.16 187.156 1046.62 186.469 1048.31 185.094C1050 183.698 1050.84 181.677 1050.84 179.031C1050.84 176.594 1050 174.646 1048.31 173.188C1046.65 171.708 1044.42 170.969 1041.62 170.969C1039.98 170.969 1038.32 171.177 1036.66 171.594C1035.01 171.99 1033.34 172.594 1031.66 173.406V147.344Z" fill="#CB917A"/>
<path d="M1078.22 182.531H1088.62V194H1078.22V182.531Z" fill="#CB917A"/>
<path d="M1122.84 170.625C1120.84 170.625 1119.31 171.354 1118.25 172.812C1117.21 174.25 1116.69 176.344 1116.69 179.094C1116.69 181.823 1117.21 183.917 1118.25 185.375C1119.31 186.812 1120.84 187.531 1122.84 187.531C1124.84 187.531 1126.38 186.812 1127.44 185.375C1128.52 183.917 1129.06 181.823 1129.06 179.094C1129.06 176.365 1128.52 174.271 1127.44 172.812C1126.38 171.354 1124.84 170.625 1122.84 170.625ZM1134.94 148.438V156.812C1133.29 155.875 1131.71 155.177 1130.19 154.719C1128.69 154.24 1127.24 154 1125.84 154C1122.51 154 1119.97 155.125 1118.22 157.375C1116.49 159.604 1115.58 162.906 1115.5 167.281C1116.48 165.927 1117.73 164.917 1119.25 164.25C1120.77 163.562 1122.56 163.219 1124.62 163.219C1128.83 163.219 1132.08 164.552 1134.38 167.219C1136.67 169.865 1137.81 173.625 1137.81 178.5C1137.81 183.729 1136.52 187.781 1133.94 190.656C1131.38 193.531 1127.76 194.969 1123.09 194.969C1117.41 194.969 1113.27 193.062 1110.69 189.25C1108.12 185.438 1106.84 179.281 1106.84 170.781C1106.84 162.698 1108.42 156.646 1111.56 152.625C1114.71 148.583 1119.43 146.562 1125.72 146.562C1127.18 146.562 1128.68 146.719 1130.22 147.031C1131.78 147.344 1133.35 147.812 1134.94 148.438Z" fill="#CB917A"/>
<path d="M1180.91 159.25C1180.91 156.458 1181.88 154.094 1183.81 152.156C1185.75 150.219 1188.1 149.25 1190.88 149.25C1193.65 149.25 1196 150.229 1197.94 152.188C1199.9 154.125 1200.88 156.479 1200.88 159.25C1200.88 162.021 1199.9 164.375 1197.94 166.312C1196 168.25 1193.65 169.219 1190.88 169.219C1188.1 169.219 1185.75 168.26 1183.81 166.344C1181.88 164.406 1180.91 162.042 1180.91 159.25ZM1190.88 154.969C1189.69 154.969 1188.68 155.385 1187.84 156.219C1187.01 157.031 1186.59 158.042 1186.59 159.25C1186.59 160.458 1187.01 161.479 1187.84 162.312C1188.68 163.125 1189.69 163.531 1190.88 163.531C1192.08 163.531 1193.09 163.125 1193.91 162.312C1194.74 161.479 1195.16 160.458 1195.16 159.25C1195.16 158.062 1194.74 157.052 1193.91 156.219C1193.07 155.385 1192.06 154.969 1190.88 154.969ZM1182.56 176.469L1215.12 163.406L1216.41 166.406L1183.66 179.469L1182.56 176.469ZM1198 184.031C1198 181.24 1198.96 178.875 1200.88 176.938C1202.81 175 1205.18 174.031 1207.97 174.031C1210.72 174.031 1213.07 175.01 1215.03 176.969C1216.99 178.906 1217.97 181.26 1217.97 184.031C1217.97 186.781 1216.99 189.135 1215.03 191.094C1213.07 193.031 1210.72 194 1207.97 194C1205.18 194 1202.81 193.042 1200.88 191.125C1198.96 189.188 1198 186.823 1198 184.031ZM1207.91 179.719C1206.74 179.719 1205.74 180.135 1204.91 180.969C1204.09 181.802 1203.69 182.823 1203.69 184.031C1203.69 185.24 1204.09 186.26 1204.91 187.094C1205.72 187.906 1206.72 188.312 1207.91 188.312C1209.11 188.312 1210.14 187.896 1210.97 187.062C1211.82 186.229 1212.25 185.219 1212.25 184.031C1212.25 182.844 1211.82 181.833 1210.97 181C1210.11 180.146 1209.09 179.719 1207.91 179.719Z" fill="#CB917A"/>
<path d="M1274.16 173.125H1269.22V165H1274.16C1276.45 165 1278.22 164.552 1279.47 163.656C1280.74 162.74 1281.38 161.458 1281.38 159.812C1281.38 158.083 1280.74 156.74 1279.47 155.781C1278.22 154.802 1276.45 154.312 1274.16 154.312C1272.41 154.312 1270.53 154.531 1268.53 154.969C1266.53 155.406 1264.46 156.042 1262.31 156.875V148.5C1264.46 147.854 1266.57 147.365 1268.66 147.031C1270.74 146.677 1272.74 146.5 1274.66 146.5C1279.57 146.5 1283.41 147.573 1286.16 149.719C1288.91 151.865 1290.28 154.823 1290.28 158.594C1290.28 161.365 1289.49 163.635 1287.91 165.406C1286.32 167.156 1284.06 168.302 1281.12 168.844C1284.46 169.427 1287 170.76 1288.75 172.844C1290.5 174.906 1291.38 177.625 1291.38 181C1291.38 185.521 1289.93 188.969 1287.03 191.344C1284.14 193.719 1279.93 194.906 1274.41 194.906C1272.05 194.906 1269.73 194.708 1267.44 194.312C1265.17 193.917 1262.99 193.344 1260.91 192.594V184.031C1262.86 185.01 1264.98 185.76 1267.25 186.281C1269.52 186.781 1271.91 187.031 1274.41 187.031C1276.91 187.031 1278.89 186.458 1280.34 185.312C1281.8 184.146 1282.53 182.583 1282.53 180.625C1282.53 178.229 1281.8 176.385 1280.34 175.094C1278.89 173.781 1276.82 173.125 1274.16 173.125Z" fill="#CB917A"/>
<path d="M674.312 269H645.25V222.344H674.312V230.469H654.469V240.531H672.438V248.656H654.469V260.875H674.312V269Z" fill="#5DC6AE"/>
<path d="M714.594 234L703.469 269H692.188L681.062 234H690.344L697.812 261.312L705.312 234H714.594Z" fill="#5DC6AE"/>
<path d="M739 252.562C735.583 252.562 733.198 253 731.844 253.875C730.49 254.75 729.812 256.25 729.812 258.375C729.812 259.958 730.281 261.219 731.219 262.156C732.156 263.094 733.427 263.562 735.031 263.562C737.448 263.562 739.323 262.656 740.656 260.844C741.99 259.01 742.656 256.458 742.656 253.188V252.562H739ZM751.75 249.031V269H742.656V265.094C741.552 266.635 740.135 267.823 738.406 268.656C736.677 269.49 734.771 269.906 732.688 269.906C728.708 269.906 725.604 268.854 723.375 266.75C721.167 264.646 720.062 261.708 720.062 257.938C720.062 253.854 721.385 250.844 724.031 248.906C726.677 246.948 730.771 245.969 736.312 245.969H742.656V244.438C742.656 242.958 742.115 241.844 741.031 241.094C739.969 240.323 738.396 239.938 736.312 239.938C734.125 239.938 732 240.219 729.938 240.781C727.896 241.323 725.76 242.198 723.531 243.406V235.594C725.552 234.76 727.604 234.146 729.688 233.75C731.771 233.354 733.979 233.156 736.312 233.156C742 233.156 745.99 234.312 748.281 236.625C750.594 238.938 751.75 243.073 751.75 249.031Z" fill="#5DC6AE"/>
<path d="M767.781 254.406V227.406H758.5V220.375H776.938V254.406C776.938 257.156 777.365 259.104 778.219 260.25C779.073 261.396 780.521 261.969 782.562 261.969H789.875V269H780C775.646 269 772.521 267.875 770.625 265.625C768.729 263.375 767.781 259.635 767.781 254.406Z" fill="#5DC6AE"/>
<path d="M799.25 256.781V234H808.406V255.375C808.406 257.896 808.76 259.698 809.469 260.781C810.177 261.865 811.354 262.406 813 262.406C814.646 262.406 815.927 261.677 816.844 260.219C817.781 258.76 818.25 256.719 818.25 254.094V234H827.406V269H818.25V263.812C817.604 265.75 816.5 267.25 814.938 268.312C813.396 269.375 811.531 269.906 809.344 269.906C806.01 269.906 803.49 268.802 801.781 266.594C800.094 264.385 799.25 261.115 799.25 256.781Z" fill="#5DC6AE"/>
<path d="M854.688 252.562C851.271 252.562 848.885 253 847.531 253.875C846.177 254.75 845.5 256.25 845.5 258.375C845.5 259.958 845.969 261.219 846.906 262.156C847.844 263.094 849.115 263.562 850.719 263.562C853.135 263.562 855.01 262.656 856.344 260.844C857.677 259.01 858.344 256.458 858.344 253.188V252.562H854.688ZM867.438 249.031V269H858.344V265.094C857.24 266.635 855.823 267.823 854.094 268.656C852.365 269.49 850.458 269.906 848.375 269.906C844.396 269.906 841.292 268.854 839.062 266.75C836.854 264.646 835.75 261.708 835.75 257.938C835.75 253.854 837.073 250.844 839.719 248.906C842.365 246.948 846.458 245.969 852 245.969H858.344V244.438C858.344 242.958 857.802 241.844 856.719 241.094C855.656 240.323 854.083 239.938 852 239.938C849.812 239.938 847.688 240.219 845.625 240.781C843.583 241.323 841.448 242.198 839.219 243.406V235.594C841.24 234.76 843.292 234.146 845.375 233.75C847.458 233.354 849.667 233.156 852 233.156C857.688 233.156 861.677 234.312 863.969 236.625C866.281 238.938 867.438 243.073 867.438 249.031Z" fill="#5DC6AE"/>
<path d="M892.938 224.062V234H904.906V241.031H892.938V257.594C892.938 259.156 893.312 260.281 894.062 260.969C894.833 261.635 896.104 261.969 897.875 261.969H904.906V269H897.219C891.969 269 888.417 268.167 886.562 266.5C884.708 264.812 883.781 261.698 883.781 257.156V241.031H874.844V234H883.781V224.062H892.938Z" fill="#5DC6AE"/>
<path d="M944.375 267.281C942.25 268.156 940.083 268.812 937.875 269.25C935.667 269.688 933.333 269.906 930.875 269.906C925.021 269.906 920.542 268.344 917.438 265.219C914.354 262.073 912.812 257.552 912.812 251.656C912.812 245.948 914.302 241.438 917.281 238.125C920.26 234.812 924.323 233.156 929.469 233.156C934.656 233.156 938.677 234.698 941.531 237.781C944.406 240.844 945.844 245.167 945.844 250.75V254.469H922.125C922.146 257.219 922.958 259.271 924.562 260.625C926.167 261.979 928.562 262.656 931.75 262.656C933.854 262.656 935.927 262.354 937.969 261.75C940.01 261.146 942.146 260.188 944.375 258.875V267.281ZM936.625 247.594C936.583 245.177 935.958 243.354 934.75 242.125C933.562 240.875 931.802 240.25 929.469 240.25C927.365 240.25 925.688 240.896 924.438 242.188C923.188 243.458 922.448 245.271 922.219 247.625L936.625 247.594Z" fill="#5DC6AE"/>
<path d="M984.281 240.062L959.438 248.969L984.281 257.812V265.594L951.25 252.625V245.25L984.281 232.25V240.062Z" fill="#FED534"/>
<path d="M1018.28 222.344V239.688H1010.28V222.344H1018.28ZM1002.28 222.344V239.688H994.281V222.344H1002.28Z" fill="#CB917A"/>
<path d="M1031.5 260.875H1041.81V230.594L1032.22 232.969V224.656L1041.88 222.344H1050.78V260.875H1061.09V269H1031.5V260.875Z" fill="#CB917A"/>
<path d="M1083.44 248.188C1081.38 248.188 1079.71 248.844 1078.44 250.156C1077.17 251.448 1076.53 253.167 1076.53 255.312C1076.53 257.458 1077.17 259.188 1078.44 260.5C1079.71 261.812 1081.38 262.469 1083.44 262.469C1085.5 262.469 1087.17 261.802 1088.44 260.469C1089.73 259.135 1090.38 257.417 1090.38 255.312C1090.38 253.167 1089.74 251.448 1088.47 250.156C1087.2 248.844 1085.52 248.188 1083.44 248.188ZM1076.59 244.281C1074.24 243.469 1072.45 242.198 1071.22 240.469C1069.99 238.719 1069.38 236.583 1069.38 234.062C1069.38 230.188 1070.64 227.125 1073.16 224.875C1075.68 222.625 1079.1 221.5 1083.44 221.5C1087.79 221.5 1091.23 222.625 1093.75 224.875C1096.27 227.125 1097.53 230.188 1097.53 234.062C1097.53 236.562 1096.93 238.688 1095.72 240.438C1094.51 242.167 1092.75 243.448 1090.44 244.281C1093.02 245.073 1095.04 246.49 1096.5 248.531C1097.96 250.573 1098.69 253.021 1098.69 255.875C1098.69 260.354 1097.36 263.812 1094.72 266.25C1092.07 268.688 1088.31 269.906 1083.44 269.906C1078.58 269.906 1074.83 268.688 1072.19 266.25C1069.54 263.812 1068.22 260.354 1068.22 255.875C1068.22 253 1068.96 250.542 1070.44 248.5C1071.92 246.458 1073.97 245.052 1076.59 244.281ZM1077.56 234.812C1077.56 236.646 1078.08 238.104 1079.12 239.188C1080.19 240.25 1081.62 240.781 1083.44 240.781C1085.27 240.781 1086.71 240.25 1087.75 239.188C1088.81 238.104 1089.34 236.646 1089.34 234.812C1089.34 233 1088.81 231.573 1087.75 230.531C1086.71 229.469 1085.27 228.938 1083.44 228.938C1081.65 228.938 1080.22 229.469 1079.16 230.531C1078.09 231.594 1077.56 233.021 1077.56 234.812Z" fill="#CB917A"/>
<path d="M1178.03 242.375L1165.12 249.344L1178.06 256.375L1175.31 261.125L1163.09 253.75V267.406H1157.56V253.781C1155.58 254.969 1153.54 256.198 1151.44 257.469C1149.33 258.74 1147.3 259.958 1145.34 261.125L1142.62 256.375L1155.59 249.344L1142.66 242.375L1145.34 237.594L1157.56 244.938V231.312H1163.09V244.938C1165.09 243.75 1167.14 242.521 1169.22 241.25C1171.32 239.979 1173.35 238.76 1175.31 237.594L1178.03 242.375Z" fill="#CB917A"/>
<path d="M1235.59 248.125H1230.66V240H1235.59C1237.89 240 1239.66 239.552 1240.91 238.656C1242.18 237.74 1242.81 236.458 1242.81 234.812C1242.81 233.083 1242.18 231.74 1240.91 230.781C1239.66 229.802 1237.89 229.312 1235.59 229.312C1233.84 229.312 1231.97 229.531 1229.97 229.969C1227.97 230.406 1225.9 231.042 1223.75 231.875V223.5C1225.9 222.854 1228.01 222.365 1230.09 222.031C1232.18 221.677 1234.18 221.5 1236.09 221.5C1241.01 221.5 1244.84 222.573 1247.59 224.719C1250.34 226.865 1251.72 229.823 1251.72 233.594C1251.72 236.365 1250.93 238.635 1249.34 240.406C1247.76 242.156 1245.5 243.302 1242.56 243.844C1245.9 244.427 1248.44 245.76 1250.19 247.844C1251.94 249.906 1252.81 252.625 1252.81 256C1252.81 260.521 1251.36 263.969 1248.47 266.344C1245.57 268.719 1241.36 269.906 1235.84 269.906C1233.49 269.906 1231.17 269.708 1228.88 269.312C1226.6 268.917 1224.43 268.344 1222.34 267.594V259.031C1224.3 260.01 1226.42 260.76 1228.69 261.281C1230.96 261.781 1233.34 262.031 1235.84 262.031C1238.34 262.031 1240.32 261.458 1241.78 260.312C1243.24 259.146 1243.97 257.583 1243.97 255.625C1243.97 253.229 1243.24 251.385 1241.78 250.094C1240.32 248.781 1238.26 248.125 1235.59 248.125Z" fill="#CB917A"/>
<path d="M674.312 344H645.25V297.344H674.312V305.469H654.469V315.531H672.438V323.656H654.469V335.875H674.312V344Z" fill="#5DC6AE"/>
<path d="M714.594 309L703.469 344H692.188L681.062 309H690.344L697.812 336.312L705.312 309H714.594Z" fill="#5DC6AE"/>
<path d="M739 327.562C735.583 327.562 733.198 328 731.844 328.875C730.49 329.75 729.812 331.25 729.812 333.375C729.812 334.958 730.281 336.219 731.219 337.156C732.156 338.094 733.427 338.562 735.031 338.562C737.448 338.562 739.323 337.656 740.656 335.844C741.99 334.01 742.656 331.458 742.656 328.188V327.562H739ZM751.75 324.031V344H742.656V340.094C741.552 341.635 740.135 342.823 738.406 343.656C736.677 344.49 734.771 344.906 732.688 344.906C728.708 344.906 725.604 343.854 723.375 341.75C721.167 339.646 720.062 336.708 720.062 332.938C720.062 328.854 721.385 325.844 724.031 323.906C726.677 321.948 730.771 320.969 736.312 320.969H742.656V319.438C742.656 317.958 742.115 316.844 741.031 316.094C739.969 315.323 738.396 314.938 736.312 314.938C734.125 314.938 732 315.219 729.938 315.781C727.896 316.323 725.76 317.198 723.531 318.406V310.594C725.552 309.76 727.604 309.146 729.688 308.75C731.771 308.354 733.979 308.156 736.312 308.156C742 308.156 745.99 309.312 748.281 311.625C750.594 313.938 751.75 318.073 751.75 324.031Z" fill="#5DC6AE"/>
<path d="M767.781 329.406V302.406H758.5V295.375H776.938V329.406C776.938 332.156 777.365 334.104 778.219 335.25C779.073 336.396 780.521 336.969 782.562 336.969H789.875V344H780C775.646 344 772.521 342.875 770.625 340.625C768.729 338.375 767.781 334.635 767.781 329.406Z" fill="#5DC6AE"/>
<path d="M799.25 331.781V309H808.406V330.375C808.406 332.896 808.76 334.698 809.469 335.781C810.177 336.865 811.354 337.406 813 337.406C814.646 337.406 815.927 336.677 816.844 335.219C817.781 333.76 818.25 331.719 818.25 329.094V309H827.406V344H818.25V338.812C817.604 340.75 816.5 342.25 814.938 343.312C813.396 344.375 811.531 344.906 809.344 344.906C806.01 344.906 803.49 343.802 801.781 341.594C800.094 339.385 799.25 336.115 799.25 331.781Z" fill="#5DC6AE"/>
<path d="M854.688 327.562C851.271 327.562 848.885 328 847.531 328.875C846.177 329.75 845.5 331.25 845.5 333.375C845.5 334.958 845.969 336.219 846.906 337.156C847.844 338.094 849.115 338.562 850.719 338.562C853.135 338.562 855.01 337.656 856.344 335.844C857.677 334.01 858.344 331.458 858.344 328.188V327.562H854.688ZM867.438 324.031V344H858.344V340.094C857.24 341.635 855.823 342.823 854.094 343.656C852.365 344.49 850.458 344.906 848.375 344.906C844.396 344.906 841.292 343.854 839.062 341.75C836.854 339.646 835.75 336.708 835.75 332.938C835.75 328.854 837.073 325.844 839.719 323.906C842.365 321.948 846.458 320.969 852 320.969H858.344V319.438C858.344 317.958 857.802 316.844 856.719 316.094C855.656 315.323 854.083 314.938 852 314.938C849.812 314.938 847.688 315.219 845.625 315.781C843.583 316.323 841.448 317.198 839.219 318.406V310.594C841.24 309.76 843.292 309.146 845.375 308.75C847.458 308.354 849.667 308.156 852 308.156C857.688 308.156 861.677 309.312 863.969 311.625C866.281 313.938 867.438 318.073 867.438 324.031Z" fill="#5DC6AE"/>
<path d="M892.938 299.062V309H904.906V316.031H892.938V332.594C892.938 334.156 893.312 335.281 894.062 335.969C894.833 336.635 896.104 336.969 897.875 336.969H904.906V344H897.219C891.969 344 888.417 343.167 886.562 341.5C884.708 339.812 883.781 336.698 883.781 332.156V316.031H874.844V309H883.781V299.062H892.938Z" fill="#5DC6AE"/>
<path d="M944.375 342.281C942.25 343.156 940.083 343.812 937.875 344.25C935.667 344.688 933.333 344.906 930.875 344.906C925.021 344.906 920.542 343.344 917.438 340.219C914.354 337.073 912.812 332.552 912.812 326.656C912.812 320.948 914.302 316.438 917.281 313.125C920.26 309.812 924.323 308.156 929.469 308.156C934.656 308.156 938.677 309.698 941.531 312.781C944.406 315.844 945.844 320.167 945.844 325.75V329.469H922.125C922.146 332.219 922.958 334.271 924.562 335.625C926.167 336.979 928.562 337.656 931.75 337.656C933.854 337.656 935.927 337.354 937.969 336.75C940.01 336.146 942.146 335.188 944.375 333.875V342.281ZM936.625 322.594C936.583 320.177 935.958 318.354 934.75 317.125C933.562 315.875 931.802 315.25 929.469 315.25C927.365 315.25 925.688 315.896 924.438 317.188C923.188 318.458 922.448 320.271 922.219 322.625L936.625 322.594Z" fill="#5DC6AE"/>
<path d="M984.281 315.062L959.438 323.969L984.281 332.812V340.594L951.25 327.625V320.25L984.281 307.25V315.062Z" fill="#FED534"/>
<path d="M1018.28 297.344V314.688H1010.28V297.344H1018.28ZM1002.28 297.344V314.688H994.281V297.344H1002.28Z" fill="#CB917A"/>
<path d="M1058.78 342.219C1057.24 343.115 1055.58 343.781 1053.81 344.219C1052.04 344.677 1050.14 344.906 1048.09 344.906C1042.7 344.906 1038.48 343.281 1035.44 340.031C1032.4 336.781 1030.88 332.281 1030.88 326.531C1030.88 320.76 1032.41 316.25 1035.47 313C1038.53 309.729 1042.76 308.094 1048.16 308.094C1050.03 308.094 1051.83 308.312 1053.56 308.75C1055.31 309.188 1057.05 309.865 1058.78 310.781V319.156C1057.45 318.01 1055.98 317.135 1054.38 316.531C1052.79 315.906 1051.15 315.594 1049.44 315.594C1046.46 315.594 1044.17 316.542 1042.56 318.438C1040.96 320.333 1040.16 323.031 1040.16 326.531C1040.16 330.031 1040.96 332.719 1042.56 334.594C1044.17 336.469 1046.46 337.406 1049.44 337.406C1051.21 337.406 1052.86 337.115 1054.41 336.531C1055.95 335.927 1057.41 335.021 1058.78 333.812V342.219Z" fill="#CB917A"/>
<path d="M1098.62 342.281C1096.5 343.156 1094.33 343.812 1092.12 344.25C1089.92 344.688 1087.58 344.906 1085.12 344.906C1079.27 344.906 1074.79 343.344 1071.69 340.219C1068.6 337.073 1067.06 332.552 1067.06 326.656C1067.06 320.948 1068.55 316.438 1071.53 313.125C1074.51 309.812 1078.57 308.156 1083.72 308.156C1088.91 308.156 1092.93 309.698 1095.78 312.781C1098.66 315.844 1100.09 320.167 1100.09 325.75V329.469H1076.38C1076.4 332.219 1077.21 334.271 1078.81 335.625C1080.42 336.979 1082.81 337.656 1086 337.656C1088.1 337.656 1090.18 337.354 1092.22 336.75C1094.26 336.146 1096.4 335.188 1098.62 333.875V342.281ZM1090.88 322.594C1090.83 320.177 1090.21 318.354 1089 317.125C1087.81 315.875 1086.05 315.25 1083.72 315.25C1081.61 315.25 1079.94 315.896 1078.69 317.188C1077.44 318.458 1076.7 320.271 1076.47 322.625L1090.88 322.594Z" fill="#CB917A"/>
<path d="M1109.66 309H1127.78V336.969H1139.16V344H1107.22V336.969H1118.62V316.031H1109.66V309ZM1118.62 291.969H1127.78V302.656H1118.62V291.969Z" fill="#CB917A"/>
<path d="M1153.41 329.406V302.406H1144.12V295.375H1162.56V329.406C1162.56 332.156 1162.99 334.104 1163.84 335.25C1164.7 336.396 1166.15 336.969 1168.19 336.969H1175.5V344H1165.62C1161.27 344 1158.15 342.875 1156.25 340.625C1154.35 338.375 1153.41 334.635 1153.41 329.406Z" fill="#CB917A"/>
<path d="M1208.75 295.438C1206 300.417 1203.96 305.24 1202.62 309.906C1201.29 314.573 1200.62 319.24 1200.62 323.906C1200.62 328.531 1201.29 333.198 1202.62 337.906C1203.96 342.594 1206 347.438 1208.75 352.438H1201.62C1198.31 347.625 1195.85 342.885 1194.25 338.219C1192.65 333.531 1191.84 328.76 1191.84 323.906C1191.84 319.073 1192.65 314.312 1194.25 309.625C1195.88 304.917 1198.33 300.188 1201.62 295.438H1208.75Z" fill="#CB917A"/>
<path d="M1237.69 323.188C1235.62 323.188 1233.96 323.844 1232.69 325.156C1231.42 326.448 1230.78 328.167 1230.78 330.312C1230.78 332.458 1231.42 334.188 1232.69 335.5C1233.96 336.812 1235.62 337.469 1237.69 337.469C1239.75 337.469 1241.42 336.802 1242.69 335.469C1243.98 334.135 1244.62 332.417 1244.62 330.312C1244.62 328.167 1243.99 326.448 1242.72 325.156C1241.45 323.844 1239.77 323.188 1237.69 323.188ZM1230.84 319.281C1228.49 318.469 1226.7 317.198 1225.47 315.469C1224.24 313.719 1223.62 311.583 1223.62 309.062C1223.62 305.188 1224.89 302.125 1227.41 299.875C1229.93 297.625 1233.35 296.5 1237.69 296.5C1242.04 296.5 1245.48 297.625 1248 299.875C1250.52 302.125 1251.78 305.188 1251.78 309.062C1251.78 311.562 1251.18 313.688 1249.97 315.438C1248.76 317.167 1247 318.448 1244.69 319.281C1247.27 320.073 1249.29 321.49 1250.75 323.531C1252.21 325.573 1252.94 328.021 1252.94 330.875C1252.94 335.354 1251.61 338.812 1248.97 341.25C1246.32 343.688 1242.56 344.906 1237.69 344.906C1232.83 344.906 1229.08 343.688 1226.44 341.25C1223.79 338.812 1222.47 335.354 1222.47 330.875C1222.47 328 1223.21 325.542 1224.69 323.5C1226.17 321.458 1228.22 320.052 1230.84 319.281ZM1231.81 309.812C1231.81 311.646 1232.33 313.104 1233.38 314.188C1234.44 315.25 1235.88 315.781 1237.69 315.781C1239.52 315.781 1240.96 315.25 1242 314.188C1243.06 313.104 1243.59 311.646 1243.59 309.812C1243.59 308 1243.06 306.573 1242 305.531C1240.96 304.469 1239.52 303.938 1237.69 303.938C1235.9 303.938 1234.47 304.469 1233.41 305.531C1232.34 306.594 1231.81 308.021 1231.81 309.812Z" fill="#CB917A"/>
<path d="M1271.03 332.531H1281.44V344H1271.03V332.531Z" fill="#CB917A"/>
<path d="M674.312 419H645.25V372.344H674.312V380.469H654.469V390.531H672.438V398.656H654.469V410.875H674.312V419Z" fill="#5DC6AE"/>
<path d="M714.594 384L703.469 419H692.188L681.062 384H690.344L697.812 411.312L705.312 384H714.594Z" fill="#5DC6AE"/>
<path d="M739 402.562C735.583 402.562 733.198 403 731.844 403.875C730.49 404.75 729.812 406.25 729.812 408.375C729.812 409.958 730.281 411.219 731.219 412.156C732.156 413.094 733.427 413.562 735.031 413.562C737.448 413.562 739.323 412.656 740.656 410.844C741.99 409.01 742.656 406.458 742.656 403.188V402.562H739ZM751.75 399.031V419H742.656V415.094C741.552 416.635 740.135 417.823 738.406 418.656C736.677 419.49 734.771 419.906 732.688 419.906C728.708 419.906 725.604 418.854 723.375 416.75C721.167 414.646 720.062 411.708 720.062 407.938C720.062 403.854 721.385 400.844 724.031 398.906C726.677 396.948 730.771 395.969 736.312 395.969H742.656V394.438C742.656 392.958 742.115 391.844 741.031 391.094C739.969 390.323 738.396 389.938 736.312 389.938C734.125 389.938 732 390.219 729.938 390.781C727.896 391.323 725.76 392.198 723.531 393.406V385.594C725.552 384.76 727.604 384.146 729.688 383.75C731.771 383.354 733.979 383.156 736.312 383.156C742 383.156 745.99 384.312 748.281 386.625C750.594 388.938 751.75 393.073 751.75 399.031Z" fill="#5DC6AE"/>
<path d="M767.781 404.406V377.406H758.5V370.375H776.938V404.406C776.938 407.156 777.365 409.104 778.219 410.25C779.073 411.396 780.521 411.969 782.562 411.969H789.875V419H780C775.646 419 772.521 417.875 770.625 415.625C768.729 413.375 767.781 409.635 767.781 404.406Z" fill="#5DC6AE"/>
<path d="M799.25 406.781V384H808.406V405.375C808.406 407.896 808.76 409.698 809.469 410.781C810.177 411.865 811.354 412.406 813 412.406C814.646 412.406 815.927 411.677 816.844 410.219C817.781 408.76 818.25 406.719 818.25 404.094V384H827.406V419H818.25V413.812C817.604 415.75 816.5 417.25 814.938 418.312C813.396 419.375 811.531 419.906 809.344 419.906C806.01 419.906 803.49 418.802 801.781 416.594C800.094 414.385 799.25 411.115 799.25 406.781Z" fill="#5DC6AE"/>
<path d="M854.688 402.562C851.271 402.562 848.885 403 847.531 403.875C846.177 404.75 845.5 406.25 845.5 408.375C845.5 409.958 845.969 411.219 846.906 412.156C847.844 413.094 849.115 413.562 850.719 413.562C853.135 413.562 855.01 412.656 856.344 410.844C857.677 409.01 858.344 406.458 858.344 403.188V402.562H854.688ZM867.438 399.031V419H858.344V415.094C857.24 416.635 855.823 417.823 854.094 418.656C852.365 419.49 850.458 419.906 848.375 419.906C844.396 419.906 841.292 418.854 839.062 416.75C836.854 414.646 835.75 411.708 835.75 407.938C835.75 403.854 837.073 400.844 839.719 398.906C842.365 396.948 846.458 395.969 852 395.969H858.344V394.438C858.344 392.958 857.802 391.844 856.719 391.094C855.656 390.323 854.083 389.938 852 389.938C849.812 389.938 847.688 390.219 845.625 390.781C843.583 391.323 841.448 392.198 839.219 393.406V385.594C841.24 384.76 843.292 384.146 845.375 383.75C847.458 383.354 849.667 383.156 852 383.156C857.688 383.156 861.677 384.312 863.969 386.625C866.281 388.938 867.438 393.073 867.438 399.031Z" fill="#5DC6AE"/>
<path d="M892.938 374.062V384H904.906V391.031H892.938V407.594C892.938 409.156 893.312 410.281 894.062 410.969C894.833 411.635 896.104 411.969 897.875 411.969H904.906V419H897.219C891.969 419 888.417 418.167 886.562 416.5C884.708 414.812 883.781 411.698 883.781 407.156V391.031H874.844V384H883.781V374.062H892.938Z" fill="#5DC6AE"/>
<path d="M944.375 417.281C942.25 418.156 940.083 418.812 937.875 419.25C935.667 419.688 933.333 419.906 930.875 419.906C925.021 419.906 920.542 418.344 917.438 415.219C914.354 412.073 912.812 407.552 912.812 401.656C912.812 395.948 914.302 391.438 917.281 388.125C920.26 384.812 924.323 383.156 929.469 383.156C934.656 383.156 938.677 384.698 941.531 387.781C944.406 390.844 945.844 395.167 945.844 400.75V404.469H922.125C922.146 407.219 922.958 409.271 924.562 410.625C926.167 411.979 928.562 412.656 931.75 412.656C933.854 412.656 935.927 412.354 937.969 411.75C940.01 411.146 942.146 410.188 944.375 408.875V417.281ZM936.625 397.594C936.583 395.177 935.958 393.354 934.75 392.125C933.562 390.875 931.802 390.25 929.469 390.25C927.365 390.25 925.688 390.896 924.438 392.188C923.188 393.458 922.448 395.271 922.219 397.625L936.625 397.594Z" fill="#5DC6AE"/>
<path d="M984.281 390.062L959.438 398.969L984.281 407.812V415.594L951.25 402.625V395.25L984.281 382.25V390.062Z" fill="#FED534"/>
<path d="M1018.28 372.344V389.688H1010.28V372.344H1018.28ZM1002.28 372.344V389.688H994.281V372.344H1002.28Z" fill="#CB917A"/>
<path d="M1042.78 398.125H1037.84V390H1042.78C1045.07 390 1046.84 389.552 1048.09 388.656C1049.36 387.74 1050 386.458 1050 384.812C1050 383.083 1049.36 381.74 1048.09 380.781C1046.84 379.802 1045.07 379.312 1042.78 379.312C1041.03 379.312 1039.16 379.531 1037.16 379.969C1035.16 380.406 1033.08 381.042 1030.94 381.875V373.5C1033.08 372.854 1035.2 372.365 1037.28 372.031C1039.36 371.677 1041.36 371.5 1043.28 371.5C1048.2 371.5 1052.03 372.573 1054.78 374.719C1057.53 376.865 1058.91 379.823 1058.91 383.594C1058.91 386.365 1058.11 388.635 1056.53 390.406C1054.95 392.156 1052.69 393.302 1049.75 393.844C1053.08 394.427 1055.62 395.76 1057.38 397.844C1059.12 399.906 1060 402.625 1060 406C1060 410.521 1058.55 413.969 1055.66 416.344C1052.76 418.719 1048.55 419.906 1043.03 419.906C1040.68 419.906 1038.35 419.708 1036.06 419.312C1033.79 418.917 1031.61 418.344 1029.53 417.594V409.031C1031.49 410.01 1033.6 410.76 1035.88 411.281C1038.15 411.781 1040.53 412.031 1043.03 412.031C1045.53 412.031 1047.51 411.458 1048.97 410.312C1050.43 409.146 1051.16 407.583 1051.16 405.625C1051.16 403.229 1050.43 401.385 1048.97 400.094C1047.51 398.781 1045.45 398.125 1042.78 398.125Z" fill="#CB917A"/>
<path d="M1087.28 372.344L1100.94 389.75H1093.38L1083.44 380.344L1073.53 389.75H1065.97L1079.62 372.344H1087.28Z" fill="#CB917A"/>
<path d="M1124.44 382.594L1112.66 401.031H1124.44V382.594ZM1123.62 372.344H1133.28V401.031H1138.41V408.938H1133.28V419H1124.44V408.938H1105.94V400L1123.62 372.344Z" fill="#CB917A"/>
<path d="M1183.06 396.375H1216.19V404.781H1183.06V396.375Z" fill="#CB917A"/>
<path d="M1278.69 382.594L1266.91 401.031H1278.69V382.594ZM1277.88 372.344H1287.53V401.031H1292.66V408.938H1287.53V419H1278.69V408.938H1260.19V400L1277.88 372.344Z" fill="#CB917A"/>
<path d="M674.312 494H645.25V447.344H674.312V455.469H654.469V465.531H672.438V473.656H654.469V485.875H674.312V494Z" fill="#5DC6AE"/>
<path d="M714.594 459L703.469 494H692.188L681.062 459H690.344L697.812 486.312L705.312 459H714.594Z" fill="#5DC6AE"/>
<path d="M739 477.562C735.583 477.562 733.198 478 731.844 478.875C730.49 479.75 729.812 481.25 729.812 483.375C729.812 484.958 730.281 486.219 731.219 487.156C732.156 488.094 733.427 488.562 735.031 488.562C737.448 488.562 739.323 487.656 740.656 485.844C741.99 484.01 742.656 481.458 742.656 478.188V477.562H739ZM751.75 474.031V494H742.656V490.094C741.552 491.635 740.135 492.823 738.406 493.656C736.677 494.49 734.771 494.906 732.688 494.906C728.708 494.906 725.604 493.854 723.375 491.75C721.167 489.646 720.062 486.708 720.062 482.938C720.062 478.854 721.385 475.844 724.031 473.906C726.677 471.948 730.771 470.969 736.312 470.969H742.656V469.438C742.656 467.958 742.115 466.844 741.031 466.094C739.969 465.323 738.396 464.938 736.312 464.938C734.125 464.938 732 465.219 729.938 465.781C727.896 466.323 725.76 467.198 723.531 468.406V460.594C725.552 459.76 727.604 459.146 729.688 458.75C731.771 458.354 733.979 458.156 736.312 458.156C742 458.156 745.99 459.312 748.281 461.625C750.594 463.938 751.75 468.073 751.75 474.031Z" fill="#5DC6AE"/>
<path d="M767.781 479.406V452.406H758.5V445.375H776.938V479.406C776.938 482.156 777.365 484.104 778.219 485.25C779.073 486.396 780.521 486.969 782.562 486.969H789.875V494H780C775.646 494 772.521 492.875 770.625 490.625C768.729 488.375 767.781 484.635 767.781 479.406Z" fill="#5DC6AE"/>
<path d="M799.25 481.781V459H808.406V480.375C808.406 482.896 808.76 484.698 809.469 485.781C810.177 486.865 811.354 487.406 813 487.406C814.646 487.406 815.927 486.677 816.844 485.219C817.781 483.76 818.25 481.719 818.25 479.094V459H827.406V494H818.25V488.812C817.604 490.75 816.5 492.25 814.938 493.312C813.396 494.375 811.531 494.906 809.344 494.906C806.01 494.906 803.49 493.802 801.781 491.594C800.094 489.385 799.25 486.115 799.25 481.781Z" fill="#5DC6AE"/>
<path d="M854.688 477.562C851.271 477.562 848.885 478 847.531 478.875C846.177 479.75 845.5 481.25 845.5 483.375C845.5 484.958 845.969 486.219 846.906 487.156C847.844 488.094 849.115 488.562 850.719 488.562C853.135 488.562 855.01 487.656 856.344 485.844C857.677 484.01 858.344 481.458 858.344 478.188V477.562H854.688ZM867.438 474.031V494H858.344V490.094C857.24 491.635 855.823 492.823 854.094 493.656C852.365 494.49 850.458 494.906 848.375 494.906C844.396 494.906 841.292 493.854 839.062 491.75C836.854 489.646 835.75 486.708 835.75 482.938C835.75 478.854 837.073 475.844 839.719 473.906C842.365 471.948 846.458 470.969 852 470.969H858.344V469.438C858.344 467.958 857.802 466.844 856.719 466.094C855.656 465.323 854.083 464.938 852 464.938C849.812 464.938 847.688 465.219 845.625 465.781C843.583 466.323 841.448 467.198 839.219 468.406V460.594C841.24 459.76 843.292 459.146 845.375 458.75C847.458 458.354 849.667 458.156 852 458.156C857.688 458.156 861.677 459.312 863.969 461.625C866.281 463.938 867.438 468.073 867.438 474.031Z" fill="#5DC6AE"/>
<path d="M892.938 449.062V459H904.906V466.031H892.938V482.594C892.938 484.156 893.312 485.281 894.062 485.969C894.833 486.635 896.104 486.969 897.875 486.969H904.906V494H897.219C891.969 494 888.417 493.167 886.562 491.5C884.708 489.812 883.781 486.698 883.781 482.156V466.031H874.844V459H883.781V449.062H892.938Z" fill="#5DC6AE"/>
<path d="M944.375 492.281C942.25 493.156 940.083 493.812 937.875 494.25C935.667 494.688 933.333 494.906 930.875 494.906C925.021 494.906 920.542 493.344 917.438 490.219C914.354 487.073 912.812 482.552 912.812 476.656C912.812 470.948 914.302 466.438 917.281 463.125C920.26 459.812 924.323 458.156 929.469 458.156C934.656 458.156 938.677 459.698 941.531 462.781C944.406 465.844 945.844 470.167 945.844 475.75V479.469H922.125C922.146 482.219 922.958 484.271 924.562 485.625C926.167 486.979 928.562 487.656 931.75 487.656C933.854 487.656 935.927 487.354 937.969 486.75C940.01 486.146 942.146 485.188 944.375 483.875V492.281ZM936.625 472.594C936.583 470.177 935.958 468.354 934.75 467.125C933.562 465.875 931.802 465.25 929.469 465.25C927.365 465.25 925.688 465.896 924.438 467.188C923.188 468.458 922.448 470.271 922.219 472.625L936.625 472.594Z" fill="#5DC6AE"/>
<path d="M984.281 465.062L959.438 473.969L984.281 482.812V490.594L951.25 477.625V470.25L984.281 457.25V465.062Z" fill="#FED534"/>
<path d="M1018.28 447.344V464.688H1010.28V447.344H1018.28ZM1002.28 447.344V464.688H994.281V447.344H1002.28Z" fill="#CB917A"/>
<path d="M1047.19 449.062V459H1059.16V466.031H1047.19V482.594C1047.19 484.156 1047.56 485.281 1048.31 485.969C1049.08 486.635 1050.35 486.969 1052.12 486.969H1059.16V494H1051.47C1046.22 494 1042.67 493.167 1040.81 491.5C1038.96 489.812 1038.03 486.698 1038.03 482.156V466.031H1029.09V459H1038.03V449.062H1047.19Z" fill="#CB917A"/>
<path d="M1100.16 468.656C1099.16 467.74 1097.98 467.052 1096.62 466.594C1095.29 466.135 1093.82 465.906 1092.22 465.906C1090.28 465.906 1088.58 466.25 1087.12 466.938C1085.69 467.604 1084.57 468.583 1083.78 469.875C1083.28 470.667 1082.93 471.625 1082.72 472.75C1082.53 473.875 1082.44 475.583 1082.44 477.875V494H1073.28V459H1082.44V464.438C1083.33 462.438 1084.71 460.896 1086.56 459.812C1088.42 458.708 1090.58 458.156 1093.06 458.156C1094.31 458.156 1095.53 458.312 1096.72 458.625C1097.93 458.917 1099.07 459.354 1100.16 459.938V468.656Z" fill="#CB917A"/>
<path d="M1107.75 481.781V459H1116.91V480.375C1116.91 482.896 1117.26 484.698 1117.97 485.781C1118.68 486.865 1119.85 487.406 1121.5 487.406C1123.15 487.406 1124.43 486.677 1125.34 485.219C1126.28 483.76 1126.75 481.719 1126.75 479.094V459H1135.91V494H1126.75V488.812C1126.1 490.75 1125 492.25 1123.44 493.312C1121.9 494.375 1120.03 494.906 1117.84 494.906C1114.51 494.906 1111.99 493.802 1110.28 491.594C1108.59 489.385 1107.75 486.115 1107.75 481.781Z" fill="#CB917A"/>
<path d="M1174.78 471.281V494H1165.69V472.688C1165.69 470.146 1165.32 468.333 1164.59 467.25C1163.89 466.146 1162.72 465.594 1161.09 465.594C1159.45 465.594 1158.15 466.333 1157.19 467.812C1156.25 469.292 1155.78 471.344 1155.78 473.969V494H1146.69V459H1155.78V464.25C1156.43 462.312 1157.53 460.812 1159.09 459.75C1160.66 458.688 1162.54 458.156 1164.75 458.156C1168.06 458.156 1170.56 459.26 1172.25 461.469C1173.94 463.656 1174.78 466.927 1174.78 471.281Z" fill="#CB917A"/>
<path d="M1213.03 492.219C1211.49 493.115 1209.83 493.781 1208.06 494.219C1206.29 494.677 1204.39 494.906 1202.34 494.906C1196.95 494.906 1192.73 493.281 1189.69 490.031C1186.65 486.781 1185.12 482.281 1185.12 476.531C1185.12 470.76 1186.66 466.25 1189.72 463C1192.78 459.729 1197.01 458.094 1202.41 458.094C1204.28 458.094 1206.08 458.312 1207.81 458.75C1209.56 459.188 1211.3 459.865 1213.03 460.781V469.156C1211.7 468.01 1210.23 467.135 1208.62 466.531C1207.04 465.906 1205.4 465.594 1203.69 465.594C1200.71 465.594 1198.42 466.542 1196.81 468.438C1195.21 470.333 1194.41 473.031 1194.41 476.531C1194.41 480.031 1195.21 482.719 1196.81 484.594C1198.42 486.469 1200.71 487.406 1203.69 487.406C1205.46 487.406 1207.11 487.115 1208.66 486.531C1210.2 485.927 1211.66 485.021 1213.03 483.812V492.219Z" fill="#CB917A"/>
<path d="M1240.31 477.562C1236.9 477.562 1234.51 478 1233.16 478.875C1231.8 479.75 1231.12 481.25 1231.12 483.375C1231.12 484.958 1231.59 486.219 1232.53 487.156C1233.47 488.094 1234.74 488.562 1236.34 488.562C1238.76 488.562 1240.64 487.656 1241.97 485.844C1243.3 484.01 1243.97 481.458 1243.97 478.188V477.562H1240.31ZM1253.06 474.031V494H1243.97V490.094C1242.86 491.635 1241.45 492.823 1239.72 493.656C1237.99 494.49 1236.08 494.906 1234 494.906C1230.02 494.906 1226.92 493.854 1224.69 491.75C1222.48 489.646 1221.38 486.708 1221.38 482.938C1221.38 478.854 1222.7 475.844 1225.34 473.906C1227.99 471.948 1232.08 470.969 1237.62 470.969H1243.97V469.438C1243.97 467.958 1243.43 466.844 1242.34 466.094C1241.28 465.323 1239.71 464.938 1237.62 464.938C1235.44 464.938 1233.31 465.219 1231.25 465.781C1229.21 466.323 1227.07 467.198 1224.84 468.406V460.594C1226.86 459.76 1228.92 459.146 1231 458.75C1233.08 458.354 1235.29 458.156 1237.62 458.156C1243.31 458.156 1247.3 459.312 1249.59 461.625C1251.91 463.938 1253.06 468.073 1253.06 474.031Z" fill="#CB917A"/>
<path d="M1278.56 449.062V459H1290.53V466.031H1278.56V482.594C1278.56 484.156 1278.94 485.281 1279.69 485.969C1280.46 486.635 1281.73 486.969 1283.5 486.969H1290.53V494H1282.84C1277.59 494 1274.04 493.167 1272.19 491.5C1270.33 489.812 1269.41 486.698 1269.41 482.156V466.031H1260.47V459H1269.41V449.062H1278.56Z" fill="#CB917A"/>
<path d="M674.312 569H645.25V522.344H674.312V530.469H654.469V540.531H672.438V548.656H654.469V560.875H674.312V569Z" fill="#5DC6AE"/>
<path d="M714.594 534L703.469 569H692.188L681.062 534H690.344L697.812 561.312L705.312 534H714.594Z" fill="#5DC6AE"/>
<path d="M739 552.562C735.583 552.562 733.198 553 731.844 553.875C730.49 554.75 729.812 556.25 729.812 558.375C729.812 559.958 730.281 561.219 731.219 562.156C732.156 563.094 733.427 563.562 735.031 563.562C737.448 563.562 739.323 562.656 740.656 560.844C741.99 559.01 742.656 556.458 742.656 553.188V552.562H739ZM751.75 549.031V569H742.656V565.094C741.552 566.635 740.135 567.823 738.406 568.656C736.677 569.49 734.771 569.906 732.688 569.906C728.708 569.906 725.604 568.854 723.375 566.75C721.167 564.646 720.062 561.708 720.062 557.938C720.062 553.854 721.385 550.844 724.031 548.906C726.677 546.948 730.771 545.969 736.312 545.969H742.656V544.438C742.656 542.958 742.115 541.844 741.031 541.094C739.969 540.323 738.396 539.938 736.312 539.938C734.125 539.938 732 540.219 729.938 540.781C727.896 541.323 725.76 542.198 723.531 543.406V535.594C725.552 534.76 727.604 534.146 729.688 533.75C731.771 533.354 733.979 533.156 736.312 533.156C742 533.156 745.99 534.312 748.281 536.625C750.594 538.938 751.75 543.073 751.75 549.031Z" fill="#5DC6AE"/>
<path d="M767.781 554.406V527.406H758.5V520.375H776.938V554.406C776.938 557.156 777.365 559.104 778.219 560.25C779.073 561.396 780.521 561.969 782.562 561.969H789.875V569H780C775.646 569 772.521 567.875 770.625 565.625C768.729 563.375 767.781 559.635 767.781 554.406Z" fill="#5DC6AE"/>
<path d="M799.25 556.781V534H808.406V555.375C808.406 557.896 808.76 559.698 809.469 560.781C810.177 561.865 811.354 562.406 813 562.406C814.646 562.406 815.927 561.677 816.844 560.219C817.781 558.76 818.25 556.719 818.25 554.094V534H827.406V569H818.25V563.812C817.604 565.75 816.5 567.25 814.938 568.312C813.396 569.375 811.531 569.906 809.344 569.906C806.01 569.906 803.49 568.802 801.781 566.594C800.094 564.385 799.25 561.115 799.25 556.781Z" fill="#5DC6AE"/>
<path d="M854.688 552.562C851.271 552.562 848.885 553 847.531 553.875C846.177 554.75 845.5 556.25 845.5 558.375C845.5 559.958 845.969 561.219 846.906 562.156C847.844 563.094 849.115 563.562 850.719 563.562C853.135 563.562 855.01 562.656 856.344 560.844C857.677 559.01 858.344 556.458 858.344 553.188V552.562H854.688ZM867.438 549.031V569H858.344V565.094C857.24 566.635 855.823 567.823 854.094 568.656C852.365 569.49 850.458 569.906 848.375 569.906C844.396 569.906 841.292 568.854 839.062 566.75C836.854 564.646 835.75 561.708 835.75 557.938C835.75 553.854 837.073 550.844 839.719 548.906C842.365 546.948 846.458 545.969 852 545.969H858.344V544.438C858.344 542.958 857.802 541.844 856.719 541.094C855.656 540.323 854.083 539.938 852 539.938C849.812 539.938 847.688 540.219 845.625 540.781C843.583 541.323 841.448 542.198 839.219 543.406V535.594C841.24 534.76 843.292 534.146 845.375 533.75C847.458 533.354 849.667 533.156 852 533.156C857.688 533.156 861.677 534.312 863.969 536.625C866.281 538.938 867.438 543.073 867.438 549.031Z" fill="#5DC6AE"/>
<path d="M892.938 524.062V534H904.906V541.031H892.938V557.594C892.938 559.156 893.312 560.281 894.062 560.969C894.833 561.635 896.104 561.969 897.875 561.969H904.906V569H897.219C891.969 569 888.417 568.167 886.562 566.5C884.708 564.812 883.781 561.698 883.781 557.156V541.031H874.844V534H883.781V524.062H892.938Z" fill="#5DC6AE"/>
<path d="M944.375 567.281C942.25 568.156 940.083 568.812 937.875 569.25C935.667 569.688 933.333 569.906 930.875 569.906C925.021 569.906 920.542 568.344 917.438 565.219C914.354 562.073 912.812 557.552 912.812 551.656C912.812 545.948 914.302 541.438 917.281 538.125C920.26 534.812 924.323 533.156 929.469 533.156C934.656 533.156 938.677 534.698 941.531 537.781C944.406 540.844 945.844 545.167 945.844 550.75V554.469H922.125C922.146 557.219 922.958 559.271 924.562 560.625C926.167 561.979 928.562 562.656 931.75 562.656C933.854 562.656 935.927 562.354 937.969 561.75C940.01 561.146 942.146 560.188 944.375 558.875V567.281ZM936.625 547.594C936.583 545.177 935.958 543.354 934.75 542.125C933.562 540.875 931.802 540.25 929.469 540.25C927.365 540.25 925.688 540.896 924.438 542.188C923.188 543.458 922.448 545.271 922.219 547.625L936.625 547.594Z" fill="#5DC6AE"/>
<path d="M984.281 540.062L959.438 548.969L984.281 557.812V565.594L951.25 552.625V545.25L984.281 532.25V540.062Z" fill="#FED534"/>
<path d="M1018.28 522.344V539.688H1010.28V522.344H1018.28ZM1002.28 522.344V539.688H994.281V522.344H1002.28Z" fill="#CB917A"/>
<path d="M1047.5 552.562C1044.08 552.562 1041.7 553 1040.34 553.875C1038.99 554.75 1038.31 556.25 1038.31 558.375C1038.31 559.958 1038.78 561.219 1039.72 562.156C1040.66 563.094 1041.93 563.562 1043.53 563.562C1045.95 563.562 1047.82 562.656 1049.16 560.844C1050.49 559.01 1051.16 556.458 1051.16 553.188V552.562H1047.5ZM1060.25 549.031V569H1051.16V565.094C1050.05 566.635 1048.64 567.823 1046.91 568.656C1045.18 569.49 1043.27 569.906 1041.19 569.906C1037.21 569.906 1034.1 568.854 1031.88 566.75C1029.67 564.646 1028.56 561.708 1028.56 557.938C1028.56 553.854 1029.89 550.844 1032.53 548.906C1035.18 546.948 1039.27 545.969 1044.81 545.969H1051.16V544.438C1051.16 542.958 1050.61 541.844 1049.53 541.094C1048.47 540.323 1046.9 539.938 1044.81 539.938C1042.62 539.938 1040.5 540.219 1038.44 540.781C1036.4 541.323 1034.26 542.198 1032.03 543.406V535.594C1034.05 534.76 1036.1 534.146 1038.19 533.75C1040.27 533.354 1042.48 533.156 1044.81 533.156C1050.5 533.156 1054.49 534.312 1056.78 536.625C1059.09 538.938 1060.25 543.073 1060.25 549.031Z" fill="#CB917A"/>
<path d="M1090.75 551.594C1090.75 548.219 1090.19 545.573 1089.06 543.656C1087.94 541.74 1086.39 540.781 1084.41 540.781C1082.43 540.781 1080.86 541.74 1079.72 543.656C1078.57 545.573 1078 548.219 1078 551.594C1078 554.969 1078.57 557.615 1079.72 559.531C1080.86 561.448 1082.43 562.406 1084.41 562.406C1086.39 562.406 1087.94 561.448 1089.06 559.531C1090.19 557.615 1090.75 554.969 1090.75 551.594ZM1078 538.969C1079.12 537.031 1080.43 535.583 1081.91 534.625C1083.41 533.646 1085.09 533.156 1086.97 533.156C1091.11 533.156 1094.3 534.74 1096.53 537.906C1098.78 541.073 1099.91 545.615 1099.91 551.531C1099.91 557.365 1098.8 561.885 1096.59 565.094C1094.39 568.302 1091.28 569.906 1087.28 569.906C1085.18 569.906 1083.34 569.396 1081.78 568.375C1080.22 567.354 1078.96 565.833 1078 563.812V569H1068.88V520.375H1078V538.969Z" fill="#CB917A"/>
<path d="M1133.72 535.094V543.094C1132.03 542.01 1130.27 541.198 1128.44 540.656C1126.62 540.094 1124.8 539.812 1122.97 539.812C1120.93 539.812 1119.39 540.115 1118.34 540.719C1117.3 541.302 1116.78 542.177 1116.78 543.344C1116.78 545.01 1119.01 546.365 1123.47 547.406L1123.81 547.5L1126.44 548.125C1129.77 548.917 1132.21 550.198 1133.75 551.969C1135.31 553.719 1136.09 556.094 1136.09 559.094C1136.09 562.698 1134.91 565.406 1132.53 567.219C1130.18 569.01 1126.62 569.906 1121.88 569.906C1119.77 569.906 1117.61 569.719 1115.41 569.344C1113.2 568.99 1110.96 568.448 1108.69 567.719V559.719C1110.71 560.865 1112.76 561.74 1114.84 562.344C1116.95 562.948 1118.98 563.25 1120.94 563.25C1123.08 563.25 1124.71 562.938 1125.81 562.312C1126.92 561.688 1127.47 560.781 1127.47 559.594C1127.47 558.427 1127.07 557.531 1126.28 556.906C1125.51 556.281 1123.66 555.615 1120.72 554.906L1118.19 554.344C1114.69 553.552 1112.14 552.312 1110.53 550.625C1108.93 548.938 1108.12 546.677 1108.12 543.844C1108.12 540.469 1109.34 537.844 1111.78 535.969C1114.22 534.094 1117.65 533.156 1122.06 533.156C1124.04 533.156 1126.01 533.323 1127.97 533.656C1129.95 533.969 1131.86 534.448 1133.72 535.094Z" fill="#CB917A"/>
<path d="M1170.19 520.438C1167.44 525.417 1165.4 530.24 1164.06 534.906C1162.73 539.573 1162.06 544.24 1162.06 548.906C1162.06 553.531 1162.73 558.198 1164.06 562.906C1165.4 567.594 1167.44 572.438 1170.19 577.438H1163.06C1159.75 572.625 1157.29 567.885 1155.69 563.219C1154.08 558.531 1153.28 553.76 1153.28 548.906C1153.28 544.073 1154.08 539.312 1155.69 534.625C1157.31 529.917 1159.77 525.188 1163.06 520.438H1170.19Z" fill="#CB917A"/>
<path d="M1183.06 546.375H1216.19V554.781H1183.06V546.375Z" fill="#CB917A"/>
<path d="M1224.31 560.875H1234.62V530.594L1225.03 532.969V524.656L1234.69 522.344H1243.59V560.875H1253.91V569H1224.31V560.875Z" fill="#CB917A"/>
<path d="M1271.03 557.531H1281.44V569H1271.03V557.531Z" fill="#CB917A"/>
<path d="M674.312 644H645.25V597.344H674.312V605.469H654.469V615.531H672.438V623.656H654.469V635.875H674.312V644Z" fill="#5DC6AE"/>
<path d="M714.594 609L703.469 644H692.188L681.062 609H690.344L697.812 636.312L705.312 609H714.594Z" fill="#5DC6AE"/>
<path d="M739 627.562C735.583 627.562 733.198 628 731.844 628.875C730.49 629.75 729.812 631.25 729.812 633.375C729.812 634.958 730.281 636.219 731.219 637.156C732.156 638.094 733.427 638.562 735.031 638.562C737.448 638.562 739.323 637.656 740.656 635.844C741.99 634.01 742.656 631.458 742.656 628.188V627.562H739ZM751.75 624.031V644H742.656V640.094C741.552 641.635 740.135 642.823 738.406 643.656C736.677 644.49 734.771 644.906 732.688 644.906C728.708 644.906 725.604 643.854 723.375 641.75C721.167 639.646 720.062 636.708 720.062 632.938C720.062 628.854 721.385 625.844 724.031 623.906C726.677 621.948 730.771 620.969 736.312 620.969H742.656V619.438C742.656 617.958 742.115 616.844 741.031 616.094C739.969 615.323 738.396 614.938 736.312 614.938C734.125 614.938 732 615.219 729.938 615.781C727.896 616.323 725.76 617.198 723.531 618.406V610.594C725.552 609.76 727.604 609.146 729.688 608.75C731.771 608.354 733.979 608.156 736.312 608.156C742 608.156 745.99 609.312 748.281 611.625C750.594 613.938 751.75 618.073 751.75 624.031Z" fill="#5DC6AE"/>
<path d="M767.781 629.406V602.406H758.5V595.375H776.938V629.406C776.938 632.156 777.365 634.104 778.219 635.25C779.073 636.396 780.521 636.969 782.562 636.969H789.875V644H780C775.646 644 772.521 642.875 770.625 640.625C768.729 638.375 767.781 634.635 767.781 629.406Z" fill="#5DC6AE"/>
<path d="M799.25 631.781V609H808.406V630.375C808.406 632.896 808.76 634.698 809.469 635.781C810.177 636.865 811.354 637.406 813 637.406C814.646 637.406 815.927 636.677 816.844 635.219C817.781 633.76 818.25 631.719 818.25 629.094V609H827.406V644H818.25V638.812C817.604 640.75 816.5 642.25 814.938 643.312C813.396 644.375 811.531 644.906 809.344 644.906C806.01 644.906 803.49 643.802 801.781 641.594C800.094 639.385 799.25 636.115 799.25 631.781Z" fill="#5DC6AE"/>
<path d="M854.688 627.562C851.271 627.562 848.885 628 847.531 628.875C846.177 629.75 845.5 631.25 845.5 633.375C845.5 634.958 845.969 636.219 846.906 637.156C847.844 638.094 849.115 638.562 850.719 638.562C853.135 638.562 855.01 637.656 856.344 635.844C857.677 634.01 858.344 631.458 858.344 628.188V627.562H854.688ZM867.438 624.031V644H858.344V640.094C857.24 641.635 855.823 642.823 854.094 643.656C852.365 644.49 850.458 644.906 848.375 644.906C844.396 644.906 841.292 643.854 839.062 641.75C836.854 639.646 835.75 636.708 835.75 632.938C835.75 628.854 837.073 625.844 839.719 623.906C842.365 621.948 846.458 620.969 852 620.969H858.344V619.438C858.344 617.958 857.802 616.844 856.719 616.094C855.656 615.323 854.083 614.938 852 614.938C849.812 614.938 847.688 615.219 845.625 615.781C843.583 616.323 841.448 617.198 839.219 618.406V610.594C841.24 609.76 843.292 609.146 845.375 608.75C847.458 608.354 849.667 608.156 852 608.156C857.688 608.156 861.677 609.312 863.969 611.625C866.281 613.938 867.438 618.073 867.438 624.031Z" fill="#5DC6AE"/>
<path d="M892.938 599.062V609H904.906V616.031H892.938V632.594C892.938 634.156 893.312 635.281 894.062 635.969C894.833 636.635 896.104 636.969 897.875 636.969H904.906V644H897.219C891.969 644 888.417 643.167 886.562 641.5C884.708 639.812 883.781 636.698 883.781 632.156V616.031H874.844V609H883.781V599.062H892.938Z" fill="#5DC6AE"/>
<path d="M944.375 642.281C942.25 643.156 940.083 643.812 937.875 644.25C935.667 644.688 933.333 644.906 930.875 644.906C925.021 644.906 920.542 643.344 917.438 640.219C914.354 637.073 912.812 632.552 912.812 626.656C912.812 620.948 914.302 616.438 917.281 613.125C920.26 609.812 924.323 608.156 929.469 608.156C934.656 608.156 938.677 609.698 941.531 612.781C944.406 615.844 945.844 620.167 945.844 625.75V629.469H922.125C922.146 632.219 922.958 634.271 924.562 635.625C926.167 636.979 928.562 637.656 931.75 637.656C933.854 637.656 935.927 637.354 937.969 636.75C940.01 636.146 942.146 635.188 944.375 633.875V642.281ZM936.625 622.594C936.583 620.177 935.958 618.354 934.75 617.125C933.562 615.875 931.802 615.25 929.469 615.25C927.365 615.25 925.688 615.896 924.438 617.188C923.188 618.458 922.448 620.271 922.219 622.625L936.625 622.594Z" fill="#5DC6AE"/>
<path d="M984.281 615.062L959.438 623.969L984.281 632.812V640.594L951.25 627.625V620.25L984.281 607.25V615.062Z" fill="#FED534"/>
<path d="M1018.28 597.344V614.688H1010.28V597.344H1018.28ZM1002.28 597.344V614.688H994.281V597.344H1002.28Z" fill="#CB917A"/>
<path d="M1047.19 599.062V609H1059.16V616.031H1047.19V632.594C1047.19 634.156 1047.56 635.281 1048.31 635.969C1049.08 636.635 1050.35 636.969 1052.12 636.969H1059.16V644H1051.47C1046.22 644 1042.67 643.167 1040.81 641.5C1038.96 639.812 1038.03 636.698 1038.03 632.156V616.031H1029.09V609H1038.03V599.062H1047.19Z" fill="#CB917A"/>
<path d="M1100.16 618.656C1099.16 617.74 1097.98 617.052 1096.62 616.594C1095.29 616.135 1093.82 615.906 1092.22 615.906C1090.28 615.906 1088.58 616.25 1087.12 616.938C1085.69 617.604 1084.57 618.583 1083.78 619.875C1083.28 620.667 1082.93 621.625 1082.72 622.75C1082.53 623.875 1082.44 625.583 1082.44 627.875V644H1073.28V609H1082.44V614.438C1083.33 612.438 1084.71 610.896 1086.56 609.812C1088.42 608.708 1090.58 608.156 1093.06 608.156C1094.31 608.156 1095.53 608.312 1096.72 608.625C1097.93 608.917 1099.07 609.354 1100.16 609.938V618.656Z" fill="#CB917A"/>
<path d="M1107.75 631.781V609H1116.91V630.375C1116.91 632.896 1117.26 634.698 1117.97 635.781C1118.68 636.865 1119.85 637.406 1121.5 637.406C1123.15 637.406 1124.43 636.677 1125.34 635.219C1126.28 633.76 1126.75 631.719 1126.75 629.094V609H1135.91V644H1126.75V638.812C1126.1 640.75 1125 642.25 1123.44 643.312C1121.9 644.375 1120.03 644.906 1117.84 644.906C1114.51 644.906 1111.99 643.802 1110.28 641.594C1108.59 639.385 1107.75 636.115 1107.75 631.781Z" fill="#CB917A"/>
<path d="M1174.78 621.281V644H1165.69V622.688C1165.69 620.146 1165.32 618.333 1164.59 617.25C1163.89 616.146 1162.72 615.594 1161.09 615.594C1159.45 615.594 1158.15 616.333 1157.19 617.812C1156.25 619.292 1155.78 621.344 1155.78 623.969V644H1146.69V609H1155.78V614.25C1156.43 612.312 1157.53 610.812 1159.09 609.75C1160.66 608.688 1162.54 608.156 1164.75 608.156C1168.06 608.156 1170.56 609.26 1172.25 611.469C1173.94 613.656 1174.78 616.927 1174.78 621.281Z" fill="#CB917A"/>
<path d="M1213.03 642.219C1211.49 643.115 1209.83 643.781 1208.06 644.219C1206.29 644.677 1204.39 644.906 1202.34 644.906C1196.95 644.906 1192.73 643.281 1189.69 640.031C1186.65 636.781 1185.12 632.281 1185.12 626.531C1185.12 620.76 1186.66 616.25 1189.72 613C1192.78 609.729 1197.01 608.094 1202.41 608.094C1204.28 608.094 1206.08 608.312 1207.81 608.75C1209.56 609.188 1211.3 609.865 1213.03 610.781V619.156C1211.7 618.01 1210.23 617.135 1208.62 616.531C1207.04 615.906 1205.4 615.594 1203.69 615.594C1200.71 615.594 1198.42 616.542 1196.81 618.438C1195.21 620.333 1194.41 623.031 1194.41 626.531C1194.41 630.031 1195.21 632.719 1196.81 634.594C1198.42 636.469 1200.71 637.406 1203.69 637.406C1205.46 637.406 1207.11 637.115 1208.66 636.531C1210.2 635.927 1211.66 635.021 1213.03 633.812V642.219Z" fill="#CB917A"/>
<path d="M1240.31 627.562C1236.9 627.562 1234.51 628 1233.16 628.875C1231.8 629.75 1231.12 631.25 1231.12 633.375C1231.12 634.958 1231.59 636.219 1232.53 637.156C1233.47 638.094 1234.74 638.562 1236.34 638.562C1238.76 638.562 1240.64 637.656 1241.97 635.844C1243.3 634.01 1243.97 631.458 1243.97 628.188V627.562H1240.31ZM1253.06 624.031V644H1243.97V640.094C1242.86 641.635 1241.45 642.823 1239.72 643.656C1237.99 644.49 1236.08 644.906 1234 644.906C1230.02 644.906 1226.92 643.854 1224.69 641.75C1222.48 639.646 1221.38 636.708 1221.38 632.938C1221.38 628.854 1222.7 625.844 1225.34 623.906C1227.99 621.948 1232.08 620.969 1237.62 620.969H1243.97V619.438C1243.97 617.958 1243.43 616.844 1242.34 616.094C1241.28 615.323 1239.71 614.938 1237.62 614.938C1235.44 614.938 1233.31 615.219 1231.25 615.781C1229.21 616.323 1227.07 617.198 1224.84 618.406V610.594C1226.86 609.76 1228.92 609.146 1231 608.75C1233.08 608.354 1235.29 608.156 1237.62 608.156C1243.31 608.156 1247.3 609.312 1249.59 611.625C1251.91 613.938 1253.06 618.073 1253.06 624.031Z" fill="#CB917A"/>
<path d="M1278.56 599.062V609H1290.53V616.031H1278.56V632.594C1278.56 634.156 1278.94 635.281 1279.69 635.969C1280.46 636.635 1281.73 636.969 1283.5 636.969H1290.53V644H1282.84C1277.59 644 1274.04 643.167 1272.19 641.5C1270.33 639.812 1269.41 636.698 1269.41 632.156V616.031H1260.47V609H1269.41V599.062H1278.56Z" fill="#CB917A"/>
<path d="M355.062 343.625H345.844V305.031H334V296.969H366.906V305.031H355.062V343.625Z" fill="#5B9DD3"/>
<path d="M385.688 323.156C381.042 321.385 377.896 319.531 376.25 317.594C374.604 315.635 373.781 313.01 373.781 309.719C373.781 305.49 375.135 302.167 377.844 299.75C380.552 297.333 384.271 296.125 389 296.125C391.146 296.125 393.292 296.375 395.438 296.875C397.583 297.354 399.708 298.073 401.812 299.031V308.031C399.833 306.635 397.823 305.573 395.781 304.844C393.74 304.115 391.719 303.75 389.719 303.75C387.49 303.75 385.781 304.198 384.594 305.094C383.406 305.99 382.812 307.271 382.812 308.938C382.812 310.229 383.24 311.302 384.094 312.156C384.969 312.99 386.781 313.917 389.531 314.938L393.5 316.438C397.25 317.812 400.01 319.635 401.781 321.906C403.552 324.177 404.438 327.042 404.438 330.5C404.438 335.208 403.042 338.729 400.25 341.062C397.479 343.375 393.281 344.531 387.656 344.531C385.344 344.531 383.021 344.25 380.688 343.688C378.375 343.146 376.135 342.333 373.969 341.25V331.719C376.427 333.469 378.802 334.771 381.094 335.625C383.406 336.479 385.688 336.906 387.938 336.906C390.208 336.906 391.969 336.396 393.219 335.375C394.469 334.333 395.094 332.885 395.094 331.031C395.094 329.635 394.677 328.417 393.844 327.375C393.01 326.312 391.802 325.479 390.219 324.875L385.688 323.156Z" fill="#5B9DD3"/>
<path d="M411.5 321H444.625V329.406H411.5V321Z" fill="#5B9DD3"/>
<path d="M449.562 296.969H460.562L466.125 317.438L471.656 296.969H482.719V343.625H474.781V306.25L469.844 326.656H462.5L457.5 306.25V343.625H449.562V296.969Z" fill="#5B9DD3"/>
<path d="M507.312 327.188C503.896 327.188 501.51 327.625 500.156 328.5C498.802 329.375 498.125 330.875 498.125 333C498.125 334.583 498.594 335.844 499.531 336.781C500.469 337.719 501.74 338.188 503.344 338.188C505.76 338.188 507.635 337.281 508.969 335.469C510.302 333.635 510.969 331.083 510.969 327.812V327.188H507.312ZM520.062 323.656V343.625H510.969V339.719C509.865 341.26 508.448 342.448 506.719 343.281C504.99 344.115 503.083 344.531 501 344.531C497.021 344.531 493.917 343.479 491.688 341.375C489.479 339.271 488.375 336.333 488.375 332.562C488.375 328.479 489.698 325.469 492.344 323.531C494.99 321.573 499.083 320.594 504.625 320.594H510.969V319.062C510.969 317.583 510.427 316.469 509.344 315.719C508.281 314.948 506.708 314.562 504.625 314.562C502.438 314.562 500.312 314.844 498.25 315.406C496.208 315.948 494.073 316.823 491.844 318.031V310.219C493.865 309.385 495.917 308.771 498 308.375C500.083 307.979 502.292 307.781 504.625 307.781C510.312 307.781 514.302 308.938 516.594 311.25C518.906 313.562 520.062 317.698 520.062 323.656Z" fill="#5B9DD3"/>
<path d="M545.562 298.688V308.625H557.531V315.656H545.562V332.219C545.562 333.781 545.938 334.906 546.688 335.594C547.458 336.26 548.729 336.594 550.5 336.594H557.531V343.625H549.844C544.594 343.625 541.042 342.792 539.188 341.125C537.333 339.438 536.406 336.323 536.406 331.781V315.656H527.469V308.625H536.406V298.688H545.562Z" fill="#5B9DD3"/>
<path d="M596.031 320.906V343.625H586.938V322.312C586.938 319.792 586.573 317.99 585.844 316.906C585.135 315.823 583.969 315.281 582.344 315.281C580.677 315.281 579.375 316.021 578.438 317.5C577.5 318.958 577.031 320.99 577.031 323.594V343.625H567.938V295H577.031V313.875C577.677 311.938 578.781 310.438 580.344 309.375C581.906 308.312 583.792 307.781 586 307.781C589.312 307.781 591.812 308.885 593.5 311.094C595.188 313.281 596.031 316.552 596.031 320.906Z" fill="#5B9DD3"/>
<path d="M604.312 321H637.438V329.406H604.312V321Z" fill="#5B9DD3"/>
<rect width="1280" height="300" fill="url(#paint0_linear_6_30)"/>
<rect x="1280" y="640" width="1280" height="290" transform="rotate(-180 1280 640)" fill="url(#paint1_linear_6_30)"/>
</g>
<defs>
<linearGradient id="paint0_linear_6_30" x1="640" y1="0" x2="640" y2="300" gradientUnits="userSpaceOnUse">
<stop stop-color="#1F1F1F"/>
<stop offset="1" stop-color="#1F1F1F" stop-opacity="0"/>
</linearGradient>
<linearGradient id="paint1_linear_6_30" x1="1920" y1="640" x2="1920" y2="930" gradientUnits="userSpaceOnUse">
<stop stop-color="#1F1F1F"/>
<stop offset="1" stop-color="#1F1F1F" stop-opacity="0"/>
</linearGradient>
<clipPath id="clip0_6_30">
<rect width="1280" height="640" fill="white"/>
</clipPath>
</defs>
</svg>
